<?xml version="1.0" encoding="utf-8"?>
<!-- Generator: Adobe Illustrator 24.1.3, SVG Export Plug-In . SVG Version: 6.00 Build 0)  -->
<svg version="1.1" xmlns="http://www.w3.org/2000/svg" xmlns:xlink="http://www.w3.org/1999/xlink" x="0px" y="0px" width="165.5px"
	 height="224.4px" viewBox="0 0 165.5 224.4" style="enable-background:new 0 0 165.5 224.4;" xml:space="preserve">
<style type="text/css">
	.st0{fill:none;stroke:#000000;stroke-width:0.5;stroke-miterlimit:10;}
	.st1{fill:#999899;}
	.st2{fill:none;stroke:#323333;stroke-width:0.5;stroke-miterlimit:10;}
	.st3{fill:#FFFFFF;stroke:#000000;stroke-width:0.5;stroke-miterlimit:10;}
	.st4{opacity:0;fill:none;stroke:#040000;stroke-width:1.000000e-06;stroke-miterlimit:10;}
</style>
<g id="レイヤー_2">
</g>
<g id="レイヤー_1">
	<line class="st0" x1="55.3" y1="29.9" x2="161.6" y2="29.9"/>
	<g>
		<rect x="80.2" y="139.1" class="st1" width="28.3" height="28.3"/>
		<rect x="108.5" y="139.1" class="st1" width="28.3" height="28.3"/>
		<rect x="80.2" y="167.5" class="st1" width="28.3" height="28.3"/>
		<rect x="136.9" y="139.1" class="st1" width="28.3" height="28.3"/>
		<rect x="136.9" y="195.8" class="st1" width="28.3" height="28.3"/>
		<rect x="80.2" y="195.8" class="st1" width="28.3" height="28.3"/>
		<rect x="51.8" y="110.8" class="st1" width="28.3" height="28.3"/>
		<rect x="108.5" y="110.8" class="st1" width="28.3" height="28.3"/>
		<rect x="51.8" y="167.5" class="st1" width="28.3" height="28.3"/>
		<rect x="108.5" y="167.5" class="st1" width="28.3" height="28.3"/>
		<rect x="51.8" y="110.8" class="st2" width="113.4" height="113.4"/>
		<line class="st0" x1="51.8" y1="125" x2="165.2" y2="125"/>
		<line class="st0" x1="51.8" y1="139.1" x2="165.2" y2="139.1"/>
		<line class="st0" x1="51.8" y1="153.3" x2="165.2" y2="153.3"/>
		<line class="st0" x1="165.2" y1="167.5" x2="51.8" y2="167.5"/>
		<line class="st0" x1="51.8" y1="181.6" x2="165.2" y2="181.6"/>
		<line class="st0" x1="51.8" y1="195.8" x2="165.2" y2="195.8"/>
		<line class="st0" x1="136.9" y1="110.8" x2="136.9" y2="224.2"/>
		<line class="st0" x1="122.7" y1="110.8" x2="122.7" y2="224.2"/>
		<line class="st0" x1="108.5" y1="224.2" x2="108.5" y2="110.8"/>
		<line class="st0" x1="94.3" y1="110.8" x2="94.3" y2="224.2"/>
		<line class="st0" x1="80.2" y1="110.8" x2="80.2" y2="224.2"/>
		<line class="st0" x1="66" y1="110.8" x2="66" y2="224.2"/>
		<line class="st0" x1="151" y1="110.8" x2="151" y2="224.2"/>
		<line class="st0" x1="51.8" y1="210" x2="165.2" y2="210"/>
	</g>
	<circle class="st3" cx="90.7" cy="29.9" r="3.5"/>
	<circle class="st3" cx="126.1" cy="29.9" r="3.5"/>
	<circle class="st3" cx="55.3" cy="29.9" r="3.5"/>
	<circle class="st3" cx="161.6" cy="29.9" r="3.5"/>
	<path d="M55.7,13.7c0-0.3,0-0.3-0.3-0.3c-0.7,0.7-1.7,0.7-2.1,0.7v0.4c0.2,0,0.9,0,1.5-0.3v6c0,0.4,0,0.6-1.1,0.6h-0.4v0.4
		c0.4,0,1.4,0,1.9,0c0.5,0,1.5,0,1.9,0v-0.4h-0.4c-1,0-1.1-0.1-1.1-0.6V13.7"/>
	<path d="M124.7,20.3l1.2-1.2c1.8-1.6,2.5-2.2,2.5-3.4c0-1.3-1-2.2-2.4-2.2c-1.3,0-2.2,1.1-2.2,2.1c0,0.6,0.6,0.6,0.6,0.6
		c0.2,0,0.6-0.1,0.6-0.6c0-0.3-0.2-0.6-0.6-0.6c-0.1,0-0.1,0-0.1,0c0.3-0.7,0.9-1.2,1.6-1.2c1,0,1.5,0.9,1.5,1.9
		c0,0.9-0.6,1.8-1.2,2.5l-2.2,2.5c-0.1,0.1-0.1,0.1-0.1,0.4h4.3l0.3-2h-0.3c-0.1,0.3-0.1,0.9-0.3,1c-0.1,0.1-0.8,0.1-1.1,0.1H124.7"
		/>
	<path d="M91.2,17c0.9-0.3,1.6-1.1,1.6-2c0-0.9-1-1.6-2.1-1.6c-1.2,0-2,0.7-2,1.6c0,0.4,0.3,0.6,0.6,0.6c0.4,0,0.6-0.3,0.6-0.6
		c0-0.6-0.5-0.6-0.7-0.6c0.4-0.6,1.1-0.7,1.5-0.7c0.5,0,1.1,0.3,1.1,1.3c0,0.1,0,0.8-0.3,1.3c-0.3,0.6-0.7,0.6-1,0.6
		c-0.1,0-0.4,0-0.4,0c-0.1,0-0.2,0-0.2,0.1c0,0.1,0.1,0.1,0.3,0.1h0.5c0.9,0,1.4,0.8,1.4,1.9c0,1.6-0.8,1.9-1.3,1.9
		c-0.5,0-1.4-0.2-1.8-0.9c0.4,0.1,0.8-0.2,0.8-0.6c0-0.4-0.3-0.6-0.6-0.6c-0.3,0-0.6,0.2-0.6,0.7c0,1,1.1,1.8,2.3,1.8
		c1.4,0,2.4-1,2.4-2.2C93.1,18.1,92.4,17.3,91.2,17"/>
	<path d="M162.2,18.8h-2.8l2.8-4.3V18.8z M162.1,19.2v1c0,0.4,0,0.5-0.9,0.5H161v0.4c0.5,0,1.1,0,1.6,0c0.5,0,1.1,0,1.6,0v-0.4h-0.2
		c-0.9,0-0.9-0.1-0.9-0.5v-1h1.2v-0.4H163v-5.2c0-0.2,0-0.3-0.2-0.3c-0.1,0-0.1,0-0.2,0.1l-3.5,5.4v0.4H162.1z"/>
	<g>
		<path d="M57.5,53.4c0.1,0.5,0.5,0.8,1,0.8c0.4,0,0.7-0.3,0.9-0.6c0.2-0.4,0.3-1.1,0.3-1.1c0-0.1-0.1-0.1-0.1-0.1
			c-0.1,0-0.1,0-0.2,0.2c-0.2,0.6-0.4,1.4-0.9,1.4c-0.2,0-0.4-0.1-0.4-0.5c0-0.3,0.1-0.8,0.2-1.2l0.3-1.2c0-0.2,0.1-0.6,0.2-0.8
			c0.1-0.3,0.2-0.7,0.2-0.8c0-0.2-0.2-0.3-0.3-0.3c-0.1,0-0.4,0-0.4,0.4c-0.2,0.8-0.7,2.9-0.9,3.5c0,0-0.5,1-1.3,1
			c-0.6,0-0.7-0.5-0.7-0.9c0-0.6,0.3-1.6,0.6-2.3c0.1-0.3,0.2-0.5,0.2-0.7c0-0.5-0.4-0.9-0.9-0.9c-1.1,0-1.5,1.7-1.5,1.8
			c0,0.1,0.1,0.1,0.1,0.1c0.1,0,0.1,0,0.2-0.2c0.3-1,0.7-1.4,1.2-1.4c0.1,0,0.3,0,0.3,0.4c0,0.3-0.1,0.6-0.2,0.8
			c-0.4,1.1-0.7,1.9-0.7,2.4c0,1.1,0.8,1.4,1.4,1.4C56.8,54.2,57.3,53.7,57.5,53.4"/>
		<path d="M62.7,44.2c0-0.2,0-0.2-0.2-0.2c-0.5,0.5-1.2,0.5-1.6,0.5v0.3c0.2,0,0.7,0,1.2-0.2v4.1c0,0.3,0,0.4-0.8,0.4h-0.3v0.3
			c0.1,0,1.1,0,1.4,0c0.2,0,1.3,0,1.4,0V49h-0.3c-0.8,0-0.8-0.1-0.8-0.4V44.2"/>
		<path d="M62,56.1c-0.1,0.3-0.3,0.7-0.8,0.7c0,0-0.3,0-0.4-0.1c0.3-0.1,0.4-0.4,0.4-0.4c0-0.2-0.1-0.3-0.3-0.3
			c-0.2,0-0.5,0.2-0.5,0.5c0,0.4,0.4,0.6,0.8,0.6c0.4,0,0.7-0.2,0.9-0.6c0.2,0.4,0.6,0.6,1,0.6c0.9,0,1.4-1,1.4-1.2
			c0-0.1-0.1-0.1-0.1-0.1c-0.1,0-0.1,0-0.2,0.1c-0.2,0.6-0.6,1-1.1,1c-0.3,0-0.5-0.2-0.5-0.5c0-0.2,0.2-0.9,0.4-1.8
			c0.2-0.6,0.5-0.8,0.8-0.8c0,0,0.3,0,0.4,0.1c-0.3,0.1-0.4,0.3-0.4,0.4c0,0.2,0.1,0.3,0.3,0.3c0.2,0,0.4-0.2,0.4-0.5
			c0-0.4-0.5-0.6-0.8-0.6c-0.4,0-0.7,0.3-0.9,0.6c-0.1-0.3-0.5-0.6-1-0.6c-0.9,0-1.4,1-1.4,1.2c0,0.1,0.1,0.1,0.1,0.1
			c0.1,0,0.1,0,0.2-0.1c0.2-0.6,0.7-1,1.1-1c0.3,0,0.5,0.1,0.5,0.5c0,0.2-0.1,0.6-0.2,0.8L62,56.1"/>
	</g>
	<g>
		<path d="M71.6,53.4c0.1,0.5,0.5,0.8,1,0.8c0.4,0,0.7-0.3,0.9-0.6c0.2-0.4,0.3-1.1,0.3-1.1c0-0.1-0.1-0.1-0.1-0.1
			c-0.1,0-0.1,0-0.2,0.2c-0.2,0.6-0.4,1.4-0.9,1.4c-0.2,0-0.4-0.1-0.4-0.5c0-0.3,0.1-0.8,0.2-1.2l0.3-1.2c0-0.2,0.1-0.6,0.2-0.8
			c0.1-0.3,0.2-0.7,0.2-0.8c0-0.2-0.2-0.3-0.3-0.3c-0.1,0-0.4,0-0.4,0.4c-0.2,0.8-0.7,2.9-0.9,3.5c0,0-0.5,1-1.3,1
			c-0.6,0-0.7-0.5-0.7-0.9c0-0.6,0.3-1.6,0.6-2.3c0.1-0.3,0.2-0.5,0.2-0.7c0-0.5-0.4-0.9-0.9-0.9c-1.1,0-1.5,1.7-1.5,1.8
			c0,0.1,0.1,0.1,0.1,0.1c0.1,0,0.1,0,0.2-0.2c0.3-1,0.7-1.4,1.2-1.4c0.1,0,0.3,0,0.3,0.4c0,0.3-0.1,0.6-0.2,0.8
			c-0.4,1.1-0.7,1.9-0.7,2.4c0,1.1,0.8,1.4,1.4,1.4C71,54.2,71.4,53.7,71.6,53.4"/>
		<path d="M76.9,44.2c0-0.2,0-0.2-0.2-0.2c-0.5,0.5-1.2,0.5-1.6,0.5v0.3c0.2,0,0.7,0,1.2-0.2v4.1c0,0.3,0,0.4-0.8,0.4h-0.3v0.3
			c0.1,0,1.1,0,1.4,0c0.2,0,1.3,0,1.4,0V49h-0.3c-0.8,0-0.8-0.1-0.8-0.4V44.2"/>
		<path d="M78.6,53.9c0-0.1,0-0.1,0-0.2c0-0.2-0.1-0.3-0.3-0.3c-0.1,0-0.2,0-0.3,0.2c0,0-0.1,0.3-0.1,0.5l-0.2,0.7
			c0,0.2-0.3,1.2-0.3,1.3c0,0-0.4,0.7-1,0.7c-0.5,0-0.5-0.5-0.5-0.7c0-0.4,0.2-0.9,0.4-1.6c0.1-0.3,0.1-0.4,0.1-0.5
			c0-0.4-0.3-0.7-0.8-0.7c-0.8,0-1.2,1.1-1.2,1.2c0,0.1,0.1,0.1,0.1,0.1c0.1,0,0.1,0,0.1-0.1c0.2-0.7,0.5-1,0.9-1
			c0.1,0,0.2,0.1,0.2,0.3c0,0.2-0.1,0.4-0.1,0.5c-0.4,1-0.5,1.3-0.5,1.6c0,0.1,0,0.5,0.3,0.8c0.2,0.2,0.6,0.2,0.8,0.2
			c0.3,0,0.6-0.1,0.9-0.4c-0.1,0.4-0.2,0.8-0.5,1.2c-0.2,0.2-0.5,0.5-1,0.5c-0.1,0-0.4,0-0.6-0.3c0.4,0,0.4-0.4,0.4-0.4
			c0-0.3-0.2-0.3-0.3-0.3c-0.2,0-0.5,0.2-0.5,0.5c0,0.4,0.4,0.7,1,0.7c0.8,0,1.8-0.6,2-1.6L78.6,53.9"/>
	</g>
	<g>
		<path d="M85.6,53.4c0.1,0.5,0.5,0.8,1,0.8c0.4,0,0.7-0.3,0.9-0.6c0.2-0.4,0.3-1.1,0.3-1.1c0-0.1-0.1-0.1-0.1-0.1
			c-0.1,0-0.1,0-0.2,0.2c-0.2,0.6-0.4,1.4-0.9,1.4c-0.2,0-0.4-0.1-0.4-0.5c0-0.3,0.1-0.8,0.2-1.2l0.3-1.2c0-0.2,0.1-0.6,0.2-0.8
			c0.1-0.3,0.2-0.7,0.2-0.8c0-0.2-0.2-0.3-0.3-0.3c-0.1,0-0.4,0-0.4,0.4c-0.2,0.8-0.7,2.9-0.9,3.5c0,0-0.5,1-1.3,1
			c-0.6,0-0.7-0.5-0.7-0.9c0-0.6,0.3-1.6,0.6-2.3c0.1-0.3,0.2-0.5,0.2-0.7c0-0.5-0.4-0.9-0.9-0.9c-1.1,0-1.5,1.7-1.5,1.8
			c0,0.1,0.1,0.1,0.1,0.1c0.1,0,0.1,0,0.2-0.2c0.3-1,0.7-1.4,1.2-1.4c0.1,0,0.3,0,0.3,0.4c0,0.3-0.1,0.6-0.2,0.8
			c-0.4,1.1-0.7,1.9-0.7,2.4c0,1.1,0.8,1.4,1.4,1.4C85,54.2,85.4,53.7,85.6,53.4"/>
		<path d="M92.2,47.9H92c0,0.2-0.1,0.6-0.2,0.7c-0.1,0-0.7,0-0.8,0h-1.5c0.8-0.7,1.1-1,1.6-1.3c0.6-0.5,1.1-1,1.1-1.7
			c0-1-0.9-1.6-1.9-1.6c-1,0-1.7,0.7-1.7,1.4c0,0.4,0.3,0.4,0.4,0.4c0.2,0,0.4-0.1,0.4-0.4c0-0.1-0.1-0.4-0.5-0.4
			c0.2-0.6,0.8-0.7,1.2-0.7c0.8,0,1.2,0.6,1.2,1.3c0,0.7-0.5,1.3-0.8,1.5L88.8,49c-0.1,0.1-0.1,0.1-0.1,0.3H92L92.2,47.9"/>
		<path d="M90.2,56.1c-0.1,0.3-0.3,0.7-0.8,0.7c0,0-0.3,0-0.4-0.1c0.3-0.1,0.4-0.4,0.4-0.4c0-0.2-0.1-0.3-0.3-0.3
			c-0.2,0-0.5,0.2-0.5,0.5c0,0.4,0.4,0.6,0.8,0.6c0.4,0,0.7-0.2,0.9-0.6c0.2,0.4,0.6,0.6,1,0.6c0.9,0,1.4-1,1.4-1.2
			c0-0.1-0.1-0.1-0.1-0.1c-0.1,0-0.1,0-0.2,0.1c-0.2,0.6-0.6,1-1.1,1c-0.3,0-0.5-0.2-0.5-0.5c0-0.2,0.2-0.9,0.4-1.8
			c0.2-0.6,0.5-0.8,0.8-0.8c0,0,0.3,0,0.4,0.1c-0.3,0.1-0.4,0.3-0.4,0.4c0,0.2,0.1,0.3,0.3,0.3c0.2,0,0.4-0.2,0.4-0.5
			c0-0.4-0.5-0.6-0.8-0.6c-0.4,0-0.7,0.3-0.9,0.6c-0.1-0.3-0.5-0.6-1-0.6c-0.9,0-1.4,1-1.4,1.2c0,0.1,0.1,0.1,0.1,0.1
			c0.1,0,0.1,0,0.2-0.1c0.2-0.6,0.7-1,1.1-1c0.3,0,0.5,0.1,0.5,0.5c0,0.2-0.1,0.6-0.2,0.8L90.2,56.1"/>
	</g>
	<g>
		<path d="M99.8,53.4c0.1,0.5,0.5,0.8,1,0.8c0.4,0,0.7-0.3,0.9-0.6c0.2-0.4,0.3-1.1,0.3-1.1c0-0.1-0.1-0.1-0.1-0.1
			c-0.1,0-0.1,0-0.2,0.2c-0.2,0.6-0.4,1.4-0.9,1.4c-0.2,0-0.4-0.1-0.4-0.5c0-0.3,0.1-0.8,0.2-1.2L101,51c0-0.2,0.1-0.6,0.2-0.8
			c0.1-0.3,0.2-0.7,0.2-0.8c0-0.2-0.2-0.3-0.3-0.3c-0.1,0-0.4,0-0.4,0.4c-0.2,0.8-0.7,2.9-0.9,3.5c0,0-0.5,1-1.3,1
			c-0.6,0-0.7-0.5-0.7-0.9c0-0.6,0.3-1.6,0.6-2.3c0.1-0.3,0.2-0.5,0.2-0.7c0-0.5-0.4-0.9-0.9-0.9c-1.1,0-1.5,1.7-1.5,1.8
			c0,0.1,0.1,0.1,0.1,0.1c0.1,0,0.1,0,0.2-0.2c0.3-1,0.7-1.4,1.2-1.4c0.1,0,0.3,0,0.3,0.4c0,0.3-0.1,0.6-0.2,0.8
			c-0.4,1.1-0.7,1.9-0.7,2.4c0,1.1,0.8,1.4,1.4,1.4C99.2,54.2,99.6,53.7,99.8,53.4"/>
		<path d="M106.4,47.9h-0.3c0,0.2-0.1,0.6-0.2,0.7c-0.1,0-0.7,0-0.8,0h-1.5c0.8-0.7,1.1-1,1.6-1.3c0.6-0.5,1.1-1,1.1-1.7
			c0-1-0.9-1.6-1.9-1.6c-1,0-1.7,0.7-1.7,1.4c0,0.4,0.3,0.4,0.4,0.4c0.2,0,0.4-0.1,0.4-0.4c0-0.1-0.1-0.4-0.5-0.4
			c0.2-0.6,0.8-0.7,1.2-0.7c0.8,0,1.2,0.6,1.2,1.3c0,0.7-0.5,1.3-0.8,1.5l-1.9,1.9c-0.1,0.1-0.1,0.1-0.1,0.3h3.3L106.4,47.9"/>
		<path d="M106.8,53.9c0-0.1,0-0.1,0-0.2c0-0.2-0.1-0.3-0.3-0.3c-0.1,0-0.2,0-0.3,0.2c0,0-0.1,0.3-0.1,0.5l-0.2,0.7
			c0,0.2-0.3,1.2-0.3,1.3c0,0-0.4,0.7-1,0.7c-0.5,0-0.5-0.5-0.5-0.7c0-0.4,0.2-0.9,0.4-1.6c0.1-0.3,0.1-0.4,0.1-0.5
			c0-0.4-0.3-0.7-0.8-0.7c-0.8,0-1.2,1.1-1.2,1.2c0,0.1,0.1,0.1,0.1,0.1c0.1,0,0.1,0,0.1-0.1c0.2-0.7,0.5-1,0.9-1
			c0.1,0,0.2,0.1,0.2,0.3c0,0.2-0.1,0.4-0.1,0.5c-0.4,1-0.5,1.3-0.5,1.6c0,0.1,0,0.5,0.3,0.8c0.2,0.2,0.6,0.2,0.8,0.2
			c0.3,0,0.6-0.1,0.9-0.4c-0.1,0.4-0.2,0.8-0.5,1.2c-0.2,0.2-0.5,0.5-1,0.5c-0.1,0-0.4,0-0.6-0.3c0.4,0,0.4-0.4,0.4-0.4
			c0-0.3-0.2-0.3-0.3-0.3c-0.2,0-0.5,0.2-0.5,0.5c0,0.4,0.4,0.7,1,0.7c0.8,0,1.8-0.6,2-1.6L106.8,53.9"/>
	</g>
	<g>
		<path d="M113.8,53.4c0.1,0.5,0.5,0.8,1,0.8c0.4,0,0.7-0.3,0.9-0.6c0.2-0.4,0.3-1.1,0.3-1.1c0-0.1-0.1-0.1-0.1-0.1
			c-0.1,0-0.1,0-0.2,0.2c-0.2,0.6-0.4,1.4-0.9,1.4c-0.2,0-0.4-0.1-0.4-0.5c0-0.3,0.1-0.8,0.2-1.2L115,51c0-0.2,0.1-0.6,0.2-0.8
			c0.1-0.3,0.2-0.7,0.2-0.8c0-0.2-0.2-0.3-0.3-0.3c-0.1,0-0.4,0-0.4,0.4c-0.2,0.8-0.7,2.9-0.9,3.5c0,0-0.5,1-1.3,1
			c-0.6,0-0.7-0.5-0.7-0.9c0-0.6,0.3-1.6,0.6-2.3c0.1-0.3,0.2-0.5,0.2-0.7c0-0.5-0.4-0.9-0.9-0.9c-1.1,0-1.5,1.7-1.5,1.8
			c0,0.1,0.1,0.1,0.1,0.1c0.1,0,0.1,0,0.2-0.2c0.3-1,0.7-1.4,1.2-1.4c0.1,0,0.3,0,0.3,0.4c0,0.3-0.1,0.6-0.2,0.8
			c-0.4,1.1-0.7,1.9-0.7,2.4c0,1.1,0.8,1.4,1.4,1.4C113.2,54.2,113.6,53.7,113.8,53.4"/>
		<path d="M118.5,46.6c0.6,0,1.1,0.4,1.1,1.3c0,1-0.6,1.3-1,1.3c-0.3,0-1-0.1-1.4-0.6c0.4,0,0.5-0.3,0.5-0.4c0-0.3-0.2-0.4-0.4-0.4
			c-0.2,0-0.4,0.1-0.4,0.5c0,0.8,0.8,1.2,1.8,1.2c1.1,0,1.9-0.7,1.9-1.5c0-0.6-0.5-1.3-1.4-1.4c0.8-0.3,1.1-0.9,1.1-1.4
			c0-0.6-0.7-1.1-1.6-1.1c-0.9,0-1.6,0.4-1.6,1.1c0,0.3,0.2,0.4,0.4,0.4c0.2,0,0.4-0.2,0.4-0.4c0-0.2-0.2-0.4-0.4-0.4
			c0.3-0.4,0.8-0.4,1.1-0.4c0.4,0,0.9,0.2,0.9,0.9c0,0.3-0.1,0.7-0.3,1c-0.3,0.3-0.5,0.3-0.9,0.3c-0.2,0-0.2,0-0.3,0
			c0,0-0.1,0-0.1,0.1c0,0.1,0.1,0.1,0.2,0.1H118.5"/>
		<path d="M118.3,56.1c-0.1,0.3-0.3,0.7-0.8,0.7c0,0-0.3,0-0.4-0.1c0.3-0.1,0.4-0.4,0.4-0.4c0-0.2-0.1-0.3-0.3-0.3
			c-0.2,0-0.5,0.2-0.5,0.5c0,0.4,0.4,0.6,0.8,0.6c0.4,0,0.7-0.2,0.9-0.6c0.2,0.4,0.6,0.6,1,0.6c0.9,0,1.4-1,1.4-1.2
			c0-0.1-0.1-0.1-0.1-0.1c-0.1,0-0.1,0-0.2,0.1c-0.2,0.6-0.6,1-1.1,1c-0.3,0-0.5-0.2-0.5-0.5c0-0.2,0.2-0.9,0.4-1.8
			c0.2-0.6,0.5-0.8,0.8-0.8c0,0,0.3,0,0.4,0.1c-0.3,0.1-0.4,0.3-0.4,0.4c0,0.2,0.1,0.3,0.3,0.3c0.2,0,0.4-0.2,0.4-0.5
			c0-0.4-0.5-0.6-0.8-0.6c-0.4,0-0.7,0.3-0.9,0.6c-0.1-0.3-0.5-0.6-1-0.6c-0.9,0-1.4,1-1.4,1.2c0,0.1,0.1,0.1,0.1,0.1
			c0.1,0,0.1,0,0.2-0.1c0.2-0.6,0.7-1,1.1-1c0.3,0,0.5,0.1,0.5,0.5c0,0.2-0.1,0.6-0.2,0.8L118.3,56.1"/>
	</g>
	<g>
		<path d="M128,53.4c0.1,0.5,0.5,0.8,1,0.8c0.4,0,0.7-0.3,0.9-0.6c0.2-0.4,0.3-1.1,0.3-1.1c0-0.1-0.1-0.1-0.1-0.1
			c-0.1,0-0.1,0-0.2,0.2c-0.2,0.6-0.4,1.4-0.9,1.4c-0.2,0-0.4-0.1-0.4-0.5c0-0.3,0.1-0.8,0.2-1.2l0.3-1.2c0-0.2,0.1-0.6,0.2-0.8
			c0.1-0.3,0.2-0.7,0.2-0.8c0-0.2-0.2-0.3-0.3-0.3c-0.1,0-0.4,0-0.4,0.4c-0.2,0.8-0.7,2.9-0.9,3.5c0,0-0.5,1-1.3,1
			c-0.6,0-0.7-0.5-0.7-0.9c0-0.6,0.3-1.6,0.6-2.3c0.1-0.3,0.2-0.5,0.2-0.7c0-0.5-0.4-0.9-0.9-0.9c-1.1,0-1.5,1.7-1.5,1.8
			c0,0.1,0.1,0.1,0.1,0.1c0.1,0,0.1,0,0.2-0.2c0.3-1,0.7-1.4,1.2-1.4c0.1,0,0.3,0,0.3,0.4c0,0.3-0.1,0.6-0.2,0.8
			c-0.4,1.1-0.7,1.9-0.7,2.4c0,1.1,0.8,1.4,1.4,1.4C127.4,54.2,127.8,53.7,128,53.4"/>
		<path d="M132.7,46.6c0.6,0,1.1,0.4,1.1,1.3c0,1-0.6,1.3-1,1.3c-0.3,0-1-0.1-1.4-0.6c0.4,0,0.5-0.3,0.5-0.4c0-0.3-0.2-0.4-0.4-0.4
			c-0.2,0-0.4,0.1-0.4,0.5c0,0.8,0.8,1.2,1.8,1.2c1.1,0,1.9-0.7,1.9-1.5c0-0.6-0.5-1.3-1.4-1.4c0.8-0.3,1.1-0.9,1.1-1.4
			c0-0.6-0.7-1.1-1.6-1.1c-0.9,0-1.6,0.4-1.6,1.1c0,0.3,0.2,0.4,0.4,0.4c0.2,0,0.4-0.2,0.4-0.4c0-0.2-0.2-0.4-0.4-0.4
			c0.3-0.4,0.8-0.4,1.1-0.4c0.4,0,0.9,0.2,0.9,0.9c0,0.3-0.1,0.7-0.3,1c-0.3,0.3-0.5,0.3-0.9,0.3c-0.2,0-0.2,0-0.3,0
			c0,0-0.1,0-0.1,0.1c0,0.1,0.1,0.1,0.2,0.1H132.7"/>
		<path d="M135,53.9c0-0.1,0-0.1,0-0.2c0-0.2-0.1-0.3-0.3-0.3c-0.1,0-0.2,0-0.3,0.2c0,0-0.1,0.3-0.1,0.5l-0.2,0.7
			c0,0.2-0.3,1.2-0.3,1.3c0,0-0.4,0.7-1,0.7c-0.5,0-0.5-0.5-0.5-0.7c0-0.4,0.2-0.9,0.4-1.6c0.1-0.3,0.1-0.4,0.1-0.5
			c0-0.4-0.3-0.7-0.8-0.7c-0.8,0-1.2,1.1-1.2,1.2c0,0.1,0.1,0.1,0.1,0.1c0.1,0,0.1,0,0.1-0.1c0.2-0.7,0.5-1,0.9-1
			c0.1,0,0.2,0.1,0.2,0.3c0,0.2-0.1,0.4-0.1,0.5c-0.4,1-0.5,1.3-0.5,1.6c0,0.1,0,0.5,0.3,0.8c0.2,0.2,0.6,0.2,0.8,0.2
			c0.3,0,0.6-0.1,0.9-0.4c-0.1,0.4-0.2,0.8-0.5,1.2c-0.2,0.2-0.5,0.5-1,0.5c-0.1,0-0.4,0-0.6-0.3c0.4,0,0.4-0.4,0.4-0.4
			c0-0.3-0.2-0.3-0.3-0.3c-0.2,0-0.5,0.2-0.5,0.5c0,0.4,0.4,0.7,1,0.7c0.8,0,1.8-0.6,2-1.6L135,53.9"/>
	</g>
	<g>
		<path d="M142,53.4c0.1,0.5,0.5,0.8,1,0.8c0.4,0,0.7-0.3,0.9-0.6c0.2-0.4,0.3-1.1,0.3-1.1c0-0.1-0.1-0.1-0.1-0.1
			c-0.1,0-0.1,0-0.2,0.2c-0.2,0.6-0.4,1.4-0.9,1.4c-0.2,0-0.4-0.1-0.4-0.5c0-0.3,0.1-0.8,0.2-1.2l0.3-1.2c0-0.2,0.1-0.6,0.2-0.8
			c0.1-0.3,0.2-0.7,0.2-0.8c0-0.2-0.2-0.3-0.3-0.3c-0.1,0-0.4,0-0.4,0.4c-0.2,0.8-0.7,2.9-0.9,3.5c0,0-0.5,1-1.3,1
			c-0.6,0-0.7-0.5-0.7-0.9c0-0.6,0.3-1.6,0.6-2.3c0.1-0.3,0.2-0.5,0.2-0.7c0-0.5-0.4-0.9-0.9-0.9c-1.1,0-1.5,1.7-1.5,1.8
			c0,0.1,0.1,0.1,0.1,0.1c0.1,0,0.1,0,0.2-0.2c0.3-1,0.7-1.4,1.2-1.4c0.1,0,0.3,0,0.3,0.4c0,0.3-0.1,0.6-0.2,0.8
			c-0.4,1.1-0.7,1.9-0.7,2.4c0,1.1,0.8,1.4,1.4,1.4C141.4,54.2,141.8,53.7,142,53.4"/>
		<path d="M147.2,44.8v2.9h-2.1L147.2,44.8z M148.8,48v-0.3h-0.9v-3.6c0-0.2,0-0.2-0.2-0.2c-0.1,0-0.1,0-0.2,0.1l-2.7,3.7V48h2.4
			v0.7c0,0.3,0,0.4-0.7,0.4h-0.2v0.3c0.4,0,0.9,0,1.2,0c0.3,0,0.8,0,1.2,0V49h-0.2c-0.6,0-0.6-0.1-0.6-0.4V48H148.8z"/>
		<path d="M146.5,56.1c-0.1,0.3-0.3,0.7-0.8,0.7c0,0-0.3,0-0.4-0.1c0.3-0.1,0.4-0.4,0.4-0.4c0-0.2-0.1-0.3-0.3-0.3
			c-0.2,0-0.5,0.2-0.5,0.5c0,0.4,0.4,0.6,0.8,0.6c0.4,0,0.7-0.2,0.9-0.6c0.2,0.4,0.6,0.6,1,0.6c0.9,0,1.4-1,1.4-1.2
			c0-0.1-0.1-0.1-0.1-0.1c-0.1,0-0.1,0-0.2,0.1c-0.2,0.6-0.6,1-1.1,1c-0.3,0-0.5-0.2-0.5-0.5c0-0.2,0.2-0.9,0.4-1.8
			c0.2-0.6,0.5-0.8,0.8-0.8c0,0,0.3,0,0.4,0.1c-0.3,0.1-0.4,0.3-0.4,0.4c0,0.2,0.1,0.3,0.3,0.3c0.2,0,0.4-0.2,0.4-0.5
			c0-0.4-0.5-0.6-0.8-0.6c-0.4,0-0.7,0.3-0.9,0.6c-0.1-0.3-0.5-0.6-1-0.6c-0.9,0-1.4,1-1.4,1.2c0,0.1,0.1,0.1,0.1,0.1
			c0.1,0,0.1,0,0.2-0.1c0.2-0.6,0.7-1,1.1-1c0.3,0,0.5,0.1,0.5,0.5c0,0.2-0.1,0.6-0.2,0.8L146.5,56.1"/>
	</g>
	<g>
		<path d="M156.1,53.4c0.1,0.5,0.5,0.8,1,0.8c0.4,0,0.7-0.3,0.9-0.6c0.2-0.4,0.3-1.1,0.3-1.1c0-0.1-0.1-0.1-0.1-0.1
			c-0.1,0-0.1,0-0.2,0.2c-0.2,0.6-0.4,1.4-0.9,1.4c-0.2,0-0.4-0.1-0.4-0.5c0-0.3,0.1-0.8,0.2-1.2l0.3-1.2c0-0.2,0.1-0.6,0.2-0.8
			c0.1-0.3,0.2-0.7,0.2-0.8c0-0.2-0.2-0.3-0.3-0.3c-0.1,0-0.4,0-0.4,0.4c-0.2,0.8-0.7,2.9-0.9,3.5c0,0-0.5,1-1.3,1
			c-0.6,0-0.7-0.5-0.7-0.9c0-0.6,0.3-1.6,0.6-2.3c0.1-0.3,0.2-0.5,0.2-0.7c0-0.5-0.4-0.9-0.9-0.9c-1.1,0-1.5,1.7-1.5,1.8
			c0,0.1,0.1,0.1,0.1,0.1c0.1,0,0.1,0,0.2-0.2c0.3-1,0.7-1.4,1.2-1.4c0.1,0,0.3,0,0.3,0.4c0,0.3-0.1,0.6-0.2,0.8
			c-0.4,1.1-0.7,1.9-0.7,2.4c0,1.1,0.8,1.4,1.4,1.4C155.5,54.2,155.9,53.7,156.1,53.4"/>
		<path d="M161.4,44.8v2.9h-2.1L161.4,44.8z M162.9,48v-0.3h-0.9v-3.6c0-0.2,0-0.2-0.2-0.2c-0.1,0-0.1,0-0.2,0.1l-2.7,3.7V48h2.4
			v0.7c0,0.3,0,0.4-0.7,0.4h-0.2v0.3c0.4,0,0.9,0,1.2,0c0.3,0,0.8,0,1.2,0V49h-0.2c-0.6,0-0.6-0.1-0.6-0.4V48H162.9z"/>
		<path d="M163.2,53.9c0-0.1,0-0.1,0-0.2c0-0.2-0.1-0.3-0.3-0.3c-0.1,0-0.2,0-0.3,0.2c0,0-0.1,0.3-0.1,0.5l-0.2,0.7
			c0,0.2-0.3,1.2-0.3,1.3c0,0-0.4,0.7-1,0.7c-0.5,0-0.5-0.5-0.5-0.7c0-0.4,0.2-0.9,0.4-1.6c0.1-0.3,0.1-0.4,0.1-0.5
			c0-0.4-0.3-0.7-0.8-0.7c-0.8,0-1.2,1.1-1.2,1.2c0,0.1,0.1,0.1,0.1,0.1c0.1,0,0.1,0,0.1-0.1c0.2-0.7,0.5-1,0.9-1
			c0.1,0,0.2,0.1,0.2,0.3c0,0.2-0.1,0.4-0.1,0.5c-0.4,1-0.5,1.3-0.5,1.6c0,0.1,0,0.5,0.3,0.8c0.2,0.2,0.6,0.2,0.8,0.2
			c0.3,0,0.6-0.1,0.9-0.4c-0.1,0.4-0.2,0.8-0.5,1.2c-0.2,0.2-0.5,0.5-1,0.5c-0.1,0-0.4,0-0.6-0.3c0.4,0,0.4-0.4,0.4-0.4
			c0-0.3-0.2-0.3-0.3-0.3c-0.2,0-0.5,0.2-0.5,0.5c0,0.4,0.4,0.7,1,0.7c0.8,0,1.8-0.6,2-1.6L163.2,53.9"/>
	</g>
	<path d="M59.6,93.7c0-0.3,0-0.3-0.3-0.3c-0.7,0.7-1.7,0.7-2.1,0.7v0.4c0.2,0,0.9,0,1.5-0.3v6c0,0.4,0,0.6-1.1,0.6h-0.4v0.4
		c0.4,0,1.4,0,1.9,0c0.5,0,1.5,0,1.9,0v-0.4h-0.4c-1,0-1.1-0.1-1.1-0.6V93.7"/>
	<path d="M71.9,100.2l1.2-1.2c1.8-1.6,2.5-2.2,2.5-3.4c0-1.3-1-2.2-2.4-2.2c-1.3,0-2.2,1.1-2.2,2.1c0,0.6,0.6,0.6,0.6,0.6
		c0.2,0,0.6-0.1,0.6-0.6c0-0.3-0.2-0.6-0.6-0.6c-0.1,0-0.1,0-0.1,0c0.3-0.7,0.9-1.2,1.6-1.2c1,0,1.5,0.9,1.5,1.9
		c0,0.9-0.6,1.8-1.2,2.5l-2.2,2.5c-0.1,0.1-0.1,0.1-0.1,0.4h4.3l0.3-2h-0.3c-0.1,0.3-0.1,0.9-0.3,1c-0.1,0.1-0.8,0.1-1.1,0.1H71.9"
		/>
	<path d="M87.9,97c0.9-0.3,1.6-1.1,1.6-2c0-0.9-1-1.6-2.1-1.6c-1.2,0-2,0.7-2,1.6c0,0.4,0.3,0.6,0.6,0.6c0.4,0,0.6-0.3,0.6-0.6
		c0-0.6-0.5-0.6-0.7-0.6c0.4-0.6,1.1-0.7,1.5-0.7c0.5,0,1.1,0.3,1.1,1.3c0,0.1,0,0.8-0.3,1.3c-0.3,0.6-0.7,0.6-1,0.6
		c-0.1,0-0.4,0-0.4,0c-0.1,0-0.2,0-0.2,0.1c0,0.1,0.1,0.1,0.3,0.1h0.5c0.9,0,1.4,0.8,1.4,1.9c0,1.6-0.8,1.9-1.3,1.9
		c-0.5,0-1.4-0.2-1.8-0.9c0.4,0.1,0.8-0.2,0.8-0.6c0-0.4-0.3-0.6-0.6-0.6c-0.3,0-0.6,0.2-0.6,0.7c0,1,1.1,1.8,2.3,1.8
		c1.4,0,2.4-1,2.4-2.2C89.8,98.1,89.1,97.3,87.9,97"/>
	<path d="M102.2,98.8h-2.8l2.8-4.3V98.8z M102.1,99.2v1c0,0.4,0,0.5-0.9,0.5H101v0.4c0.5,0,1.1,0,1.6,0c0.5,0,1.1,0,1.6,0v-0.4h-0.2
		c-0.9,0-0.9-0.1-0.9-0.5v-1h1.2v-0.4H103v-5.2c0-0.2,0-0.3-0.2-0.3c-0.1,0-0.1,0-0.2,0.1l-3.5,5.4v0.4H102.1z"/>
	<path d="M118.1,98.7c0-1.4-0.9-2.5-2.2-2.5c-0.6,0-1,0.2-1.5,0.6v-2.2c0.2,0.1,0.6,0.1,1,0.1c1.4,0,2.2-1,2.2-1.2
		c0-0.1,0-0.1-0.1-0.1c0,0,0,0-0.1,0c-0.2,0.1-0.8,0.3-1.6,0.3c-0.5,0-1-0.1-1.5-0.3c-0.1,0-0.1,0-0.1,0c-0.1,0-0.1,0.1-0.1,0.3v3.4
		c0,0.2,0,0.3,0.2,0.3c0.1,0,0.1,0,0.1-0.1c0.1-0.2,0.6-0.8,1.5-0.8c0.6,0,0.9,0.5,1,0.7c0.2,0.4,0.2,0.9,0.2,1.4
		c0,0.4,0,1.1-0.3,1.6c-0.3,0.4-0.7,0.7-1.2,0.7c-0.8,0-1.5-0.6-1.7-1.3c0,0,0.1,0,0.2,0c0.4,0,0.6-0.3,0.6-0.6
		c0-0.3-0.2-0.6-0.6-0.6c-0.2,0-0.6,0.1-0.6,0.6c0,1,0.8,2.1,2.1,2.1C116.9,101.3,118.1,100.2,118.1,98.7"/>
	<path d="M130,101c-0.7,0-1.1-0.7-1.1-0.9c-0.2-0.5-0.2-1.5-0.2-1.7c0-0.9,0.4-2,1.4-2c0.2,0,0.7,0,1.1,0.7c0.2,0.4,0.2,1,0.2,1.6
		c0,0.6,0,1.1-0.2,1.5C130.7,100.9,130.2,101,130,101 M128.6,97.3V97c0-2.9,1.4-3.3,2-3.3c0.3,0,0.8,0.1,1,0.5c-0.2,0-0.6,0-0.6,0.5
		c0,0.4,0.3,0.5,0.5,0.5c0.2,0,0.5-0.1,0.5-0.6c0-0.7-0.5-1.2-1.5-1.2c-1.5,0-3,1.5-3,4c0,3.1,1.3,3.9,2.4,3.9
		c1.3,0,2.4-1.1,2.4-2.6c0-1.5-1-2.6-2.3-2.6C129.2,96.1,128.8,96.7,128.6,97.3z"/>
	<path d="M146.5,94.1c0.1-0.1,0.1-0.2,0.1-0.4h-2.8c-1.4,0-1.4-0.1-1.5-0.4H142l-0.4,2.4h0.3c0-0.2,0.1-0.9,0.3-1
		c0.1-0.1,1-0.1,1.1-0.1h2.4c-0.1,0.2-1,1.4-1.3,1.8c-1,1.6-1.4,3.2-1.4,4.3c0,0.1,0,0.6,0.5,0.6c0.5,0,0.5-0.5,0.5-0.6v-0.6
		c0-0.6,0-1.3,0.1-1.9c0-0.3,0.2-1.3,0.7-2L146.5,94.1"/>
	<path d="M157.8,97.4l1.4,0.9c0.3,0.2,0.9,0.6,0.9,1.3c0,0.9-0.9,1.4-1.8,1.4c-1,0-1.8-0.7-1.8-1.7
		C156.4,98.7,156.8,97.9,157.8,97.4 M158.9,96.9c0.8-0.4,1.4-1,1.4-1.8c0-1.1-1-1.7-2.1-1.7c-1.1,0-2.1,0.9-2.1,1.9
		c0,0.2,0,0.7,0.5,1.3c0.1,0.1,0.6,0.4,0.8,0.6c-0.7,0.3-1.7,1-1.7,2.1c0,1.2,1.2,2,2.4,2c1.3,0,2.4-1,2.4-2.2
		c0-0.4-0.1-0.9-0.6-1.4C159.9,97.5,159.7,97.4,158.9,96.9z M157.3,95.8c-0.5-0.3-0.6-0.7-0.6-0.9c0-0.7,0.7-1.2,1.6-1.2
		c0.8,0,1.6,0.6,1.6,1.4c0,0.7-0.4,1.2-1.1,1.6L157.3,95.8z"/>
	<polygon class="st4" points="158.4,133.5 158.4,133.5 158.4,133.5 158.4,133.5 158.4,133.5 158.4,133.5 158.4,133.5 158.4,133.5 
		158.4,133.5 158.4,133.5 158.4,133.5 158.4,133.5 158.4,133.5 158.4,133.5 158.4,133.5 158.4,133.5 158.4,133.5 158.4,133.5 
		158.4,133.5 158.4,133.5 158.4,133.5 158.4,133.5 158.4,133.5 158.4,133.5 158.4,133.5 158.4,133.5 158.4,133.5 158.4,133.5 
		158.4,133.5 158.4,133.5 158.4,133.5 158.4,133.5 158.4,133.5 158.4,133.5 158.4,133.5 158.4,133.5 158.4,133.5 158.4,133.5 
		158.4,133.5 158.4,133.5 158.4,133.5 158.4,133.5 158.4,133.5 158.4,133.5 158.4,133.5 158.4,133.5 158.4,133.5 158.4,133.5 
		158.4,133.5 158.4,133.5 158.4,133.5 158.4,133.5 158.4,133.5 158.4,133.5 158.4,133.5 158.4,133.5 158.4,133.5 158.4,133.5 
		158.4,133.5 158.4,133.5 158.4,133.5 158.4,133.5 158.4,133.5 158.4,133.5 158.4,133.5 158.4,133.5 158.4,133.5 158.4,133.5 
		158.4,133.5 158.4,133.5 158.4,133.5 158.4,133.5 158.4,133.5 158.4,133.5 158.4,133.5 158.4,133.5 158.4,133.5 158.4,133.5 
		158.4,133.5 158.4,133.5 158.4,133.5 158.4,133.5 158.4,133.5 158.4,133.5 158.4,133.5 158.4,133.5 158.4,133.5 158.4,133.5 
		158.4,133.5 158.4,133.5 158.4,133.5 158.4,133.5 158.4,133.5 158.4,133.5 158.4,133.5 158.4,133.5 158.4,133.5 158.4,133.5 
		158.4,133.5 158.4,133.5 158.4,133.5 158.4,133.5 158.4,133.5 158.4,133.5 158.4,133.5 158.4,133.5 158.4,133.5 158.4,133.5 
		158.4,133.5 158.4,133.5 158.4,133.5 158.4,133.5 158.4,133.5 158.4,133.5 158.4,133.5 158.4,133.5 158.4,133.5 158.4,133.5 
		158.4,133.5 158.4,133.5 158.4,133.5 158.4,133.5 158.4,133.5 158.4,133.5 158.4,133.5 158.4,133.5 158.4,133.5 158.4,133.5 
		158.4,133.5 158.4,133.5 158.4,133.5 158.4,133.5 158.4,133.5 158.4,133.5 158.4,133.5 158.4,133.5 158.4,133.5 158.4,133.5 
		158.4,133.5 158.4,133.5 158.4,133.5 158.4,133.5 158.4,133.5 158.4,133.5 158.4,133.5 158.4,133.5 158.4,133.5 158.4,133.5 
		158.4,133.5 158.4,133.5 158.4,133.5 158.4,133.5 158.4,133.5 158.4,133.5 158.4,133.5 158.4,133.5 158.4,133.5 158.4,133.5 
		158.4,133.5 158.4,133.5 	"/>
	<path d="M59.6,78.5c0-0.3,0-0.3-0.3-0.3c-0.7,0.7-1.7,0.7-2.1,0.7v0.4c0.2,0,0.9,0,1.5-0.3v6c0,0.4,0,0.6-1.1,0.6h-0.4v0.4
		c0.4,0,1.4,0,1.9,0c0.5,0,1.5,0,1.9,0v-0.4h-0.4c-1,0-1.1-0.1-1.1-0.6V78.5"/>
	<path d="M71.9,84.9l1.2-1.2c1.8-1.6,2.5-2.2,2.5-3.4c0-1.3-1-2.2-2.4-2.2c-1.3,0-2.2,1.1-2.2,2.1c0,0.6,0.6,0.6,0.6,0.6
		c0.2,0,0.6-0.1,0.6-0.6c0-0.3-0.2-0.6-0.6-0.6c-0.1,0-0.1,0-0.1,0c0.3-0.7,0.9-1.2,1.6-1.2c1,0,1.5,0.9,1.5,1.9
		c0,0.9-0.6,1.8-1.2,2.5l-2.2,2.5C71,85.5,71,85.5,71,85.8h4.3l0.3-2h-0.3c-0.1,0.3-0.1,0.9-0.3,1c-0.1,0.1-0.8,0.1-1.1,0.1H71.9"/>
	<path d="M87.9,78.5c0-0.3,0-0.3-0.3-0.3c-0.7,0.7-1.7,0.7-2.1,0.7v0.4c0.2,0,0.9,0,1.5-0.3v6c0,0.4,0,0.6-1.1,0.6h-0.4v0.4
		c0.4,0,1.4,0,1.9,0c0.5,0,1.5,0,1.9,0v-0.4H89c-1,0-1.1-0.1-1.1-0.6V78.5"/>
	<path d="M100.2,84.9l1.2-1.2c1.8-1.6,2.5-2.2,2.5-3.4c0-1.3-1-2.2-2.4-2.2c-1.3,0-2.2,1.1-2.2,2.1c0,0.6,0.6,0.6,0.6,0.6
		c0.2,0,0.6-0.1,0.6-0.6c0-0.3-0.2-0.6-0.6-0.6c-0.1,0-0.1,0-0.1,0c0.3-0.7,0.9-1.2,1.6-1.2c1,0,1.5,0.9,1.5,1.9
		c0,0.9-0.6,1.8-1.2,2.5l-2.2,2.5c-0.1,0.1-0.1,0.1-0.1,0.4h4.3l0.3-2h-0.3c-0.1,0.3-0.1,0.9-0.3,1c-0.1,0.1-0.8,0.1-1.1,0.1H100.2"
		/>
	<path d="M116.2,78.5c0-0.3,0-0.3-0.3-0.3c-0.7,0.7-1.7,0.7-2.1,0.7v0.4c0.2,0,0.9,0,1.5-0.3v6c0,0.4,0,0.6-1.1,0.6h-0.4v0.4
		c0.4,0,1.4,0,1.9,0c0.5,0,1.5,0,1.9,0v-0.4h-0.4c-1,0-1.1-0.1-1.1-0.6V78.5"/>
	<path d="M128.5,84.9l1.2-1.2c1.8-1.6,2.5-2.2,2.5-3.4c0-1.3-1-2.2-2.4-2.2c-1.3,0-2.2,1.1-2.2,2.1c0,0.6,0.6,0.6,0.6,0.6
		c0.2,0,0.6-0.1,0.6-0.6c0-0.3-0.2-0.6-0.6-0.6c-0.1,0-0.1,0-0.1,0c0.3-0.7,0.9-1.2,1.6-1.2c1,0,1.5,0.9,1.5,1.9
		c0,0.9-0.6,1.8-1.2,2.5l-2.2,2.5c-0.1,0.1-0.1,0.1-0.1,0.4h4.3l0.3-2h-0.3c-0.1,0.3-0.1,0.9-0.3,1c-0.1,0.1-0.8,0.1-1.1,0.1H128.5"
		/>
	<path d="M144.6,78.5c0-0.3,0-0.3-0.3-0.3c-0.7,0.7-1.7,0.7-2.1,0.7v0.4c0.2,0,0.9,0,1.5-0.3v6c0,0.4,0,0.6-1.1,0.6h-0.4v0.4
		c0.4,0,1.4,0,1.9,0c0.5,0,1.5,0,1.9,0v-0.4h-0.4c-1,0-1.1-0.1-1.1-0.6V78.5"/>
	<path d="M156.9,84.9l1.2-1.2c1.8-1.6,2.5-2.2,2.5-3.4c0-1.3-1-2.2-2.4-2.2c-1.3,0-2.2,1.1-2.2,2.1c0,0.6,0.6,0.6,0.6,0.6
		c0.2,0,0.6-0.1,0.6-0.6c0-0.3-0.2-0.6-0.6-0.6c-0.1,0-0.1,0-0.1,0c0.3-0.7,0.9-1.2,1.6-1.2c1,0,1.5,0.9,1.5,1.9
		c0,0.9-0.6,1.8-1.2,2.5l-2.2,2.5c-0.1,0.1-0.1,0.1-0.1,0.4h4.3l0.3-2h-0.3c-0.1,0.3-0.1,0.9-0.3,1c-0.1,0.1-0.8,0.1-1.1,0.1H156.9"
		/>
	<path d="M59.6,63.2c0-0.3,0-0.3-0.3-0.3c-0.7,0.7-1.7,0.7-2.1,0.7V64c0.2,0,0.9,0,1.5-0.3v6c0,0.4,0,0.6-1.1,0.6h-0.4v0.4
		c0.4,0,1.4,0,1.9,0c0.5,0,1.5,0,1.9,0v-0.4h-0.4c-1,0-1.1-0.1-1.1-0.6V63.2"/>
	<path d="M86,69.7l1.2-1.2c1.8-1.6,2.5-2.2,2.5-3.4c0-1.3-1-2.2-2.4-2.2c-1.3,0-2.2,1.1-2.2,2.1c0,0.6,0.6,0.6,0.6,0.6
		c0.2,0,0.6-0.1,0.6-0.6c0-0.3-0.2-0.6-0.6-0.6c-0.1,0-0.1,0-0.1,0c0.3-0.7,0.9-1.2,1.6-1.2c1,0,1.5,0.9,1.5,1.9
		c0,0.9-0.6,1.8-1.2,2.5l-2.2,2.5c-0.1,0.1-0.1,0.1-0.1,0.4h4.3l0.3-2h-0.3c-0.1,0.3-0.1,0.9-0.3,1c-0.1,0.1-0.8,0.1-1.1,0.1H86"/>
	<path d="M116.2,66.3c0.9-0.3,1.6-1.1,1.6-2c0-0.9-1-1.6-2.1-1.6c-1.2,0-2,0.7-2,1.6c0,0.4,0.3,0.6,0.6,0.6c0.4,0,0.6-0.3,0.6-0.6
		c0-0.6-0.5-0.6-0.7-0.6c0.4-0.6,1.1-0.7,1.5-0.7c0.5,0,1.1,0.3,1.1,1.3c0,0.1,0,0.8-0.3,1.3c-0.3,0.6-0.7,0.6-1,0.6
		c-0.1,0-0.4,0-0.4,0c-0.1,0-0.2,0-0.2,0.1c0,0.1,0.1,0.1,0.3,0.1h0.5c0.9,0,1.4,0.8,1.4,1.9c0,1.6-0.8,1.9-1.3,1.9
		c-0.5,0-1.4-0.2-1.8-0.9c0.4,0.1,0.8-0.2,0.8-0.6c0-0.4-0.3-0.6-0.6-0.6c-0.3,0-0.6,0.2-0.6,0.7c0,1,1.1,1.8,2.3,1.8
		c1.4,0,2.4-1,2.4-2.2C118.2,67.4,117.4,66.5,116.2,66.3"/>
	<path d="M144.7,68.3h-2.8l2.8-4.3V68.3z M144.6,68.7v1c0,0.4,0,0.5-0.9,0.5h-0.2v0.4c0.5,0,1.1,0,1.6,0c0.5,0,1.1,0,1.6,0v-0.4
		h-0.2c-0.9,0-0.9-0.1-0.9-0.5v-1h1.2v-0.4h-1.2v-5.2c0-0.2,0-0.3-0.2-0.3c-0.1,0-0.1,0-0.2,0.1l-3.5,5.4v0.4H144.6z"/>
	<path d="M73.8,63.2c0-0.3,0-0.3-0.3-0.3c-0.7,0.7-1.7,0.7-2.1,0.7V64c0.2,0,0.9,0,1.5-0.3v6c0,0.4,0,0.6-1.1,0.6h-0.4v0.4
		c0.4,0,1.4,0,1.9,0c0.5,0,1.5,0,1.9,0v-0.4h-0.4c-1,0-1.1-0.1-1.1-0.6V63.2"/>
	<path d="M100.2,69.7l1.2-1.2c1.8-1.6,2.5-2.2,2.5-3.4c0-1.3-1-2.2-2.4-2.2c-1.3,0-2.2,1.1-2.2,2.1c0,0.6,0.6,0.6,0.6,0.6
		c0.2,0,0.6-0.1,0.6-0.6c0-0.3-0.2-0.6-0.6-0.6c-0.1,0-0.1,0-0.1,0c0.3-0.7,0.9-1.2,1.6-1.2c1,0,1.5,0.9,1.5,1.9
		c0,0.9-0.6,1.8-1.2,2.5l-2.2,2.5c-0.1,0.1-0.1,0.1-0.1,0.4h4.3l0.3-2h-0.3c-0.1,0.3-0.1,0.9-0.3,1c-0.1,0.1-0.8,0.1-1.1,0.1H100.2"
		/>
	<path d="M130.4,66.3c0.9-0.3,1.6-1.1,1.6-2c0-0.9-1-1.6-2.1-1.6c-1.2,0-2,0.7-2,1.6c0,0.4,0.3,0.6,0.6,0.6c0.4,0,0.6-0.3,0.6-0.6
		c0-0.6-0.5-0.6-0.7-0.6c0.4-0.6,1.1-0.7,1.5-0.7c0.5,0,1.1,0.3,1.1,1.3c0,0.1,0,0.8-0.3,1.3c-0.3,0.6-0.7,0.6-1,0.6
		c-0.1,0-0.4,0-0.4,0c-0.1,0-0.2,0-0.2,0.1c0,0.1,0.1,0.1,0.3,0.1h0.5c0.9,0,1.4,0.8,1.4,1.9c0,1.6-0.8,1.9-1.3,1.9
		c-0.5,0-1.4-0.2-1.8-0.9c0.4,0.1,0.8-0.2,0.8-0.6c0-0.4-0.3-0.6-0.6-0.6c-0.3,0-0.6,0.2-0.6,0.7c0,1,1.1,1.8,2.3,1.8
		c1.4,0,2.4-1,2.4-2.2C132.3,67.4,131.6,66.5,130.4,66.3"/>
	<path d="M158.8,68.3H156l2.8-4.3V68.3z M158.8,68.7v1c0,0.4,0,0.5-0.9,0.5h-0.2v0.4c0.5,0,1.1,0,1.6,0c0.5,0,1.1,0,1.6,0v-0.4h-0.2
		c-0.9,0-0.9-0.1-0.9-0.5v-1h1.2v-0.4h-1.2v-5.2c0-0.2,0-0.3-0.2-0.3c-0.1,0-0.1,0-0.2,0.1l-3.5,5.4v0.4H158.8z"/>
	<g>
		<path d="M3.2,54.2L2,54.5v2.7H1.5v-2.6c-0.4,0.1-0.8,0.2-1.2,0.2c0,0.1,0,0.1-0.1,0.1L0,54.4c0.4-0.1,0.9-0.2,1.5-0.3V52H0.7
			c-0.1,0.5-0.2,0.9-0.3,1.3c-0.1-0.1-0.3-0.2-0.4-0.2c0.2-0.6,0.3-1.8,0.4-2.8l0.6,0.1c0,0.1-0.1,0.1-0.2,0.1c0,0.3-0.1,0.7-0.1,1
			h0.7v-1.7l0.7,0c0,0.1,0,0.1-0.2,0.1v1.5h1V52H2v2l1.1-0.2L3.2,54.2z M7,51.4l0.3,0c0,0,0,0.1,0,0.2c-0.2,3.7-0.3,5-0.6,5.3
			c-0.2,0.2-0.3,0.3-0.8,0.3c-0.2,0-0.4,0-0.6,0c0-0.2-0.1-0.4-0.2-0.5c0.4,0,0.7,0,0.8,0c0.1,0,0.2,0,0.3-0.1
			c0.2-0.3,0.4-1.4,0.5-4.7H6.1c-0.2,1.9-0.8,4.2-1.6,5.3C4.3,57.1,4.1,57,4,57c0.9-1.1,1.4-3.2,1.7-5.1H5c-0.3,1.6-0.9,3.6-1.7,4.6
			c-0.1-0.1-0.3-0.2-0.5-0.3c0.8-0.9,1.4-2.7,1.7-4.3H3.8c-0.2,0.7-0.5,1.3-0.8,1.8c-0.1-0.1-0.3-0.2-0.4-0.3
			c0.6-0.8,0.9-2.2,1.1-3.6l0.7,0.1C4.4,50,4.4,50,4.3,50c-0.1,0.5-0.2,0.9-0.3,1.4h2.9L7,51.4z"/>
		<path d="M9.7,53.1v2l1.1-0.3c0,0,0,0.1,0.1,0.5c-0.9,0.3-1.9,0.6-2.5,0.8c0,0.1-0.1,0.1-0.1,0.1L8,55.6c0.3-0.1,0.7-0.2,1.2-0.3
			v-2.1h-1v-0.5h1v-1.8H8.1v-0.5h2.6v0.5h-1v1.8h1v0.5H9.7z M13.3,56.5h2.2V57h-5.1v-0.5h2.4v-1.2h-1.9v-0.5h1.9v-0.9H11v-3.6h4.2
			v3.6h-1.9v0.9h2v0.5h-2V56.5z M11.5,50.7v1.1h1.3v-1.1H11.5z M11.5,53.3h1.3v-1.1h-1.3V53.3z M14.7,51.8v-1.1h-1.4v1.1H14.7z
			 M14.7,53.3v-1.1h-1.4v1.1H14.7z"/>
		<path d="M20,56.6h3.4V57h-7.3v-0.4h3.4v-0.5h-2.7v-0.4h2.7v-0.4h-2.4v-2h5.3v2H20v0.4h2.8v0.4H20V56.6z M23.4,52.4v0.4h-7.3v-0.4
			H23.4z M22.3,50.1V52h-5v-1.9H22.3z M17.6,53.6v0.5h1.8v-0.5H17.6z M17.6,54.9h1.8v-0.5h-1.8V54.9z M21.7,50.9v-0.4h-4v0.4H21.7z
			 M21.7,51.7v-0.4h-4v0.4H21.7z M21.9,54.1v-0.5H20v0.5H21.9z M21.9,54.9v-0.5H20v0.5H21.9z"/>
		<path d="M1.9,66.5c-0.1-0.3-0.2-0.7-0.4-1H1.2c-0.2,0.4-0.5,0.7-0.8,1c-0.1-0.1-0.3-0.2-0.4-0.3c0.5-0.4,0.9-1.2,1.2-1.9l0.6,0.2
			c0,0-0.1,0.1-0.2,0.1c-0.1,0.2-0.1,0.3-0.2,0.5h2.2v0.4H2.1c0.1,0.3,0.3,0.6,0.3,0.8L1.9,66.5z M2.8,70.5
			c-0.2-0.3-0.4-0.5-0.7-0.8l0.4-0.2c0.6,0.5,1.1,1.2,1.3,1.7l-0.4,0.3c-0.1-0.2-0.2-0.4-0.4-0.6c-1,0.2-2.1,0.4-2.7,0.4
			c0,0.1-0.1,0.1-0.1,0.1L0,70.9l0.6-0.1v-4.1h2.8v2.7H1.2v1.4L2.8,70.5z M2.9,67.1H1.2v0.7h1.8V67.1z M1.2,68.9h1.8v-0.7H1.2V68.9z
			 M5,64.5c0,0.1-0.1,0.1-0.2,0.1c-0.1,0.2-0.2,0.3-0.2,0.5h2.9v0.4H5.5c0.2,0.3,0.4,0.6,0.5,0.8l-0.5,0.2c-0.1-0.3-0.4-0.7-0.6-1
			H4.3c-0.3,0.4-0.6,0.7-0.9,1c-0.1-0.1-0.3-0.2-0.4-0.3c0.5-0.4,1-1.1,1.3-1.9L5,64.5z M7,66.7v3.4c0,0.6-0.3,0.6-1.5,0.6
			c0-0.1-0.1-0.4-0.2-0.5c0.3,0,0.5,0,0.7,0c0.4,0,0.4,0,0.4-0.2v-2.9H4.7v4.5H4.2v-5H7z"/>
		<path d="M9.7,70c-0.2,0.7-0.7,1.4-1.2,1.8L8,71.5c0.5-0.4,0.9-1,1.2-1.6L9.7,70z M14.5,66.7v2.6H9.1v-2.6h2.4v-2.4l0.7,0
			c0,0.1-0.1,0.1-0.2,0.1v0.8h3.1v0.5h-3.1v1H14.5z M13.9,68.8v-1.6H9.6v1.6H13.9z M10.7,71.6c0-0.4-0.1-1.1-0.2-1.6l0.5,0
			c0.1,0.5,0.2,1.2,0.2,1.6L10.7,71.6z M12.7,71.6c-0.1-0.4-0.3-1.1-0.6-1.6l0.5-0.1c0.2,0.5,0.5,1.1,0.6,1.6L12.7,71.6z M15,71.7
			c-0.2-0.5-0.8-1.2-1.3-1.7l0.5-0.2c0.5,0.5,1,1.2,1.3,1.7L15,71.7z"/>
		<path d="M23.3,67h-2.7c0.8,0.7,1.9,1.3,2.9,1.6c-0.1,0.1-0.3,0.3-0.4,0.5c-0.2-0.1-0.5-0.2-0.8-0.3v3h-0.5v-0.3h-4.1v0.3h-0.5v-3
			c-0.3,0.2-0.6,0.3-0.9,0.4c-0.1-0.1-0.2-0.3-0.4-0.4c1-0.3,2.1-1,2.9-1.7h-2.7v-0.5H18c-0.1-0.3-0.4-0.7-0.6-1l0.5-0.2
			c0.3,0.3,0.6,0.8,0.7,1.1l-0.3,0.1h1.2v-1.4c-0.9,0.1-1.8,0.1-2.7,0.2c0-0.1-0.1-0.3-0.1-0.4c1.9-0.1,4.3-0.3,5.5-0.6l0.4,0.4
			c0,0,0,0-0.1,0c0,0-0.1,0-0.1,0c-0.6,0.1-1.5,0.2-2.4,0.3v1.4h1.1c-0.1,0-0.2-0.1-0.2-0.1c0.2-0.3,0.6-0.9,0.7-1.3l0.6,0.2
			c0,0-0.1,0.1-0.2,0.1c-0.2,0.3-0.4,0.7-0.7,1.1h1.9V67z M19.5,67.1c-0.5,0.6-1.3,1.1-2,1.5h4.7c-0.8-0.4-1.6-1-2.2-1.5v1.4h-0.5
			V67.1z M19.5,69.8V69h-1.7v0.8H19.5z M17.8,70.2V71h1.7v-0.8H17.8z M21.8,69.8V69H20v0.8H21.8z M20,71h1.9v-0.8H20V71z"/>
		<path d="M31.4,68.1h-4.9c-0.1,0.2-0.2,0.5-0.3,0.8h3.6l0.1,0l0.3,0.1c0,0,0,0.1,0,0.1c-0.2,1.5-0.4,2.1-0.7,2.4
			c-0.2,0.2-0.4,0.2-0.9,0.2c-0.3,0-0.7,0-1.1,0c0-0.2-0.1-0.4-0.2-0.5c0.6,0,1.2,0.1,1.4,0.1c0.2,0,0.3,0,0.4-0.1
			c0.2-0.2,0.4-0.7,0.6-1.8h-3.6c-0.1,0.2-0.2,0.4-0.2,0.6c-0.3-0.1-0.4-0.1-0.6-0.1c0.2-0.5,0.5-1.2,0.6-1.8h-1.9v-0.5h7.3V68.1z
			 M30.3,64.7V67h-5v-2.3H30.3z M29.7,66.5v-1.3h-3.9v1.3H29.7z"/>
		<path d="M4.2,78.9C4.1,79,4.1,79,4,79c-0.1,0.3-0.2,0.6-0.4,0.9h2.9v6.3H6v-0.4H1.6v0.5H1.1v-6.3h2c0.1-0.4,0.3-0.8,0.4-1.1
			L4.2,78.9z M6,80.4H1.6v1.3H6V80.4z M6,82.2H1.6v1.3H6V82.2z M1.6,85.3H6V84H1.6V85.3z"/>
		<path d="M12,80.4h2.9v5.8h-0.6v-0.5H9.1v0.5H8.6v-5.8h2.9v-1.6l0.7,0c0,0.1,0,0.1-0.2,0.1V80.4z M11.5,80.9H9.1v1.8h2.3V80.9z
			 M9.1,83.3v1.9h2.3v-1.9H9.1z M14.4,80.9H12v1.8h2.4V80.9z M12,85.2h2.4v-1.9H12V85.2z"/>
		<path d="M23.4,80.1h-6.2V82c0,1.2-0.1,3.1-0.8,4.3C16.3,86.2,16.1,86,16,86c0.7-1.2,0.7-2.8,0.7-4v-2.4h3v-0.8l0.7,0
			c0,0.1,0,0.1-0.2,0.1v0.7h3.2V80.1z M22.3,83.4l0.4,0.2c0,0,0,0.1-0.1,0.1c-0.4,0.7-0.9,1.2-1.6,1.6c0.7,0.3,1.6,0.5,2.5,0.6
			c-0.1,0.1-0.2,0.3-0.3,0.5c-1-0.1-1.9-0.4-2.7-0.7c-0.9,0.4-1.9,0.6-2.9,0.7c0-0.1-0.1-0.3-0.2-0.5c0.9-0.1,1.8-0.3,2.6-0.6
			c-0.6-0.3-1-0.7-1.3-1.2l0.3-0.1h-1.3v-0.4L22.3,83.4L22.3,83.4z M21.9,82.8h-3.1v-1.3h-1.3v-0.4h1.3v-0.7l0.7,0
			c0,0.1-0.1,0.1-0.2,0.1v0.6h2v-0.7l0.7,0c0,0.1-0.1,0.1-0.2,0.1v0.6h1.4v0.4h-1.4V82.8z M19,83.9c0.3,0.4,0.8,0.8,1.4,1.1
			c0.6-0.3,1.1-0.6,1.4-1.1H19z M21.4,81.5h-2v0.9h2V81.5z"/>
		<path d="M31.3,81.5h-2.7c0.8,0.7,1.9,1.3,2.9,1.6c-0.1,0.1-0.3,0.3-0.4,0.5c-0.2-0.1-0.5-0.2-0.8-0.3v3h-0.5v-0.3h-4.1v0.3h-0.5
			v-3c-0.3,0.2-0.6,0.3-0.9,0.4c-0.1-0.1-0.2-0.3-0.4-0.4c1-0.3,2.1-1,2.9-1.7h-2.7v-0.5H26c-0.1-0.3-0.4-0.7-0.6-1l0.5-0.2
			c0.3,0.3,0.6,0.8,0.7,1.1l-0.3,0.1h1.2v-1.4c-0.9,0.1-1.8,0.1-2.7,0.2c0-0.1-0.1-0.3-0.1-0.4c1.9-0.1,4.3-0.3,5.5-0.6l0.4,0.4
			c0,0,0,0-0.1,0c0,0-0.1,0-0.1,0c-0.6,0.1-1.5,0.2-2.4,0.3v1.4h1.1C29,81,29,81,28.9,81c0.2-0.3,0.6-0.9,0.7-1.3l0.6,0.2
			c0,0-0.1,0.1-0.2,0.1c-0.2,0.3-0.4,0.7-0.7,1.1h1.9V81.5z M27.5,81.6c-0.5,0.6-1.3,1.1-2,1.5h4.7c-0.8-0.4-1.6-1-2.2-1.5V83h-0.5
			V81.6z M27.5,84.3v-0.8h-1.7v0.8H27.5z M25.8,84.7v0.8h1.7v-0.8H25.8z M29.8,84.3v-0.8H28v0.8H29.8z M28,85.5h1.9v-0.8H28V85.5z"
			/>
		<path d="M39.4,82.6h-4.9c-0.1,0.2-0.2,0.5-0.3,0.8h3.6l0.1,0l0.3,0.1c0,0,0,0.1,0,0.1c-0.2,1.5-0.4,2.1-0.7,2.4
			c-0.2,0.2-0.4,0.2-0.9,0.2c-0.3,0-0.7,0-1.1,0c0-0.2-0.1-0.4-0.2-0.5c0.6,0,1.2,0.1,1.4,0.1c0.2,0,0.3,0,0.4-0.1
			c0.2-0.2,0.4-0.7,0.6-1.8h-3.6c-0.1,0.2-0.2,0.4-0.2,0.6c-0.3-0.1-0.4-0.1-0.6-0.1c0.2-0.5,0.5-1.2,0.6-1.8h-1.9v-0.5h7.3V82.6z
			 M38.3,79.2v2.3h-5v-2.3H38.3z M37.7,81v-1.3h-3.9V81H37.7z"/>
		<path d="M2.5,93.6c0,0-0.1,0.1-0.2,0.1c-0.5,0.6-1.3,1.3-2,1.8C0.2,95.3,0.1,95.1,0,95c0.7-0.4,1.5-1.2,1.9-1.7L2.5,93.6z
			 M1.3,100.7v-3.5c-0.3,0.3-0.6,0.6-0.9,0.9C0.3,98,0.1,97.8,0,97.7C0.8,97.1,1.7,96,2.2,95l0.6,0.3c0,0-0.1,0.1-0.2,0.1
			c-0.2,0.4-0.5,0.8-0.8,1.2l0.1,0c0,0-0.1,0.1-0.2,0.1v4H1.3z M7.5,96.1v0.5H6.2v3.4c0,0.7-0.3,0.7-1.9,0.7c0-0.2-0.1-0.4-0.2-0.5
			c0.4,0,0.7,0,0.9,0c0.5,0,0.6,0,0.6-0.2v-3.4H2.9v-0.5H7.5z M7.1,93.8v0.5h-4v-0.5H7.1z"/>
		<path d="M8.2,94.3v-0.5h4v0.5h-2c-0.1,0.4-0.2,0.9-0.4,1.3h1.8l0.1,0l0.3,0.2c0,0,0,0.1-0.1,0.1c-0.4,2.6-1.6,4.2-3,5
			c-0.1-0.1-0.3-0.3-0.4-0.4c0.8-0.4,1.5-1.1,2-2c-0.4-0.3-0.9-0.7-1.4-1l0.3-0.4c0.5,0.2,1,0.6,1.4,0.9c0.3-0.5,0.5-1.2,0.6-1.9
			H9.5c-0.3,0.7-0.7,1.4-1.2,1.9c-0.1-0.1-0.3-0.3-0.4-0.4c0.9-0.8,1.4-2.2,1.7-3.4H8.2z M12.6,94.2l0.7,0c0,0.1-0.1,0.1-0.2,0.1
			v4.3h-0.5V94.2z M14.5,93.5l0.7,0c0,0.1,0,0.1-0.2,0.1v6.4c0,0.7-0.3,0.7-1.8,0.7c0-0.1-0.1-0.4-0.2-0.5c0.3,0,0.6,0,0.9,0
			c0.5,0,0.6,0,0.6-0.2V93.5z"/>
		<path d="M20.2,94.8c0,0.1-0.1,0.1-0.2,0.1c-0.3,2.5-1.1,4.7-2.4,4.7c-0.7,0-1.3-0.7-1.3-1.9c0-1.9,1.5-3.5,3.6-3.5
			c2.3,0,3.3,1.5,3.3,3c0,1.9-1.1,2.8-3,3.3c-0.1-0.1-0.2-0.3-0.3-0.5c1.8-0.4,2.8-1.2,2.8-2.8c0-1.3-0.8-2.5-2.7-2.5
			c-0.1,0-0.2,0-0.2,0L20.2,94.8z M19.4,94.7c-1.6,0.2-2.6,1.5-2.6,2.9c0,0.9,0.4,1.4,0.8,1.4C18.6,99,19.2,96.8,19.4,94.7z"/>
		<path d="M26.5,93.6c0,0-0.1,0.1-0.2,0.1c-0.5,0.6-1.3,1.3-2,1.8c-0.1-0.1-0.2-0.3-0.3-0.4c0.7-0.4,1.5-1.2,1.9-1.7L26.5,93.6z
			 M25.3,100.7v-3.5c-0.3,0.3-0.6,0.6-0.9,0.9c-0.1-0.1-0.2-0.3-0.3-0.4c0.8-0.6,1.6-1.7,2.2-2.7l0.6,0.3c0,0-0.1,0.1-0.2,0.1
			c-0.2,0.4-0.5,0.8-0.8,1.2l0.1,0c0,0-0.1,0.1-0.2,0.1v4H25.3z M31.5,96.1v0.5h-1.3v3.4c0,0.7-0.3,0.7-1.9,0.7
			c0-0.2-0.1-0.4-0.2-0.5c0.4,0,0.7,0,0.9,0c0.5,0,0.6,0,0.6-0.2v-3.4h-2.8v-0.5H31.5z M31.1,93.8v0.5h-4v-0.5H31.1z"/>
		<path d="M39.3,96h-2.7c0.8,0.7,1.9,1.3,2.9,1.6c-0.1,0.1-0.3,0.3-0.4,0.5c-0.2-0.1-0.5-0.2-0.8-0.3v3h-0.5v-0.3h-4.1v0.3h-0.5v-3
			c-0.3,0.2-0.6,0.3-0.9,0.4c-0.1-0.1-0.2-0.3-0.4-0.4c1-0.3,2.1-1,2.9-1.7h-2.7v-0.5H34c-0.1-0.3-0.4-0.7-0.6-1l0.5-0.2
			c0.3,0.3,0.6,0.8,0.7,1.1l-0.3,0.1h1.2v-1.4c-0.9,0.1-1.8,0.1-2.7,0.2c0-0.1-0.1-0.3-0.1-0.4c1.9-0.1,4.3-0.3,5.5-0.6l0.4,0.4
			c0,0,0,0-0.1,0c0,0-0.1,0-0.1,0c-0.6,0.1-1.5,0.2-2.4,0.3v1.4h1.1c-0.1,0-0.2-0.1-0.2-0.1c0.2-0.3,0.6-0.9,0.7-1.3l0.6,0.2
			c0,0-0.1,0.1-0.2,0.1c-0.2,0.3-0.4,0.7-0.7,1.1h1.9V96z M35.5,96.1c-0.5,0.6-1.3,1.1-2,1.5h4.7c-0.8-0.4-1.6-1-2.2-1.5v1.4h-0.5
			V96.1z M35.5,98.8V98h-1.7v0.8H35.5z M33.8,99.2v0.8h1.7v-0.8H33.8z M37.8,98.8V98H36v0.8H37.8z M36,100h1.9v-0.8H36V100z"/>
		<path d="M47.4,97.1h-4.9c-0.1,0.2-0.2,0.5-0.3,0.8h3.6l0.1,0l0.3,0.1c0,0,0,0.1,0,0.1c-0.2,1.5-0.4,2.1-0.7,2.4
			c-0.2,0.2-0.4,0.2-0.9,0.2c-0.3,0-0.7,0-1.1,0c0-0.2-0.1-0.4-0.2-0.5c0.6,0,1.2,0.1,1.4,0.1c0.2,0,0.3,0,0.4-0.1
			c0.2-0.2,0.4-0.7,0.6-1.8h-3.6c-0.1,0.2-0.2,0.4-0.2,0.6c-0.3-0.1-0.4-0.1-0.6-0.1c0.2-0.5,0.5-1.2,0.6-1.8h-1.9v-0.5h7.3V97.1z
			 M46.3,93.7V96h-5v-2.3H46.3z M45.7,95.5v-1.3h-3.9v1.3H45.7z"/>
	</g>
	<g>
		<g>
			<line class="st0" x1="10.6" y1="31" x2="30.5" y2="31"/>
			<g>
				<polygon points="27.5,32.6 27.4,32.1 30.4,31 27.4,29.9 27.5,29.4 31.9,31 				"/>
			</g>
		</g>
	</g>
	<g>
		<g>
			<line class="st0" x1="10.6" y1="31" x2="10.6" y2="11.1"/>
			<g>
				<polygon points="12.2,14.1 11.8,14.3 10.6,11.2 9.5,14.3 9.1,14.1 10.6,9.7 				"/>
			</g>
		</g>
	</g>
	<path d="M13.2,0.7c0-0.1,0-0.2,0-0.2c0-0.2-0.2-0.3-0.3-0.3c-0.1,0-0.3,0.1-0.4,0.2c0,0.1-0.1,0.4-0.2,0.6l-0.2,0.9
		c-0.1,0.2-0.4,1.5-0.4,1.7c0,0-0.5,0.9-1.3,0.9c-0.7,0-0.7-0.7-0.7-0.9c0-0.6,0.2-1.2,0.5-2c0.1-0.3,0.2-0.5,0.2-0.6
		c0-0.5-0.4-0.9-1-0.9C8.5,0,8,1.4,8,1.6c0,0.1,0.1,0.1,0.2,0.1c0.1,0,0.2-0.1,0.2-0.2c0.3-0.9,0.7-1.3,1.1-1.3
		c0.2,0,0.3,0.1,0.3,0.4c0,0.2-0.1,0.5-0.1,0.6C9.1,2.5,9,2.9,9,3.3c0,0.2,0,0.7,0.4,1c0.3,0.3,0.8,0.3,1,0.3c0.4,0,0.8-0.2,1.1-0.5
		c-0.1,0.6-0.2,1-0.7,1.5C10.6,6,10.2,6.4,9.6,6.4c-0.1,0-0.6,0-0.8-0.3C9.4,6,9.4,5.5,9.4,5.5c0-0.3-0.3-0.4-0.4-0.4
		c-0.3,0-0.6,0.2-0.6,0.7c0,0.5,0.5,0.9,1.2,0.9c1,0,2.3-0.8,2.6-2.1L13.2,0.7"/>
	<path d="M36.5,32.1c-0.1,0.4-0.4,0.9-1,0.9c0,0-0.3,0-0.6-0.1c0.4-0.1,0.5-0.5,0.5-0.6c0-0.2-0.2-0.4-0.4-0.4
		c-0.3,0-0.6,0.2-0.6,0.6c0,0.5,0.6,0.8,1.1,0.8c0.5,0,0.9-0.3,1.2-0.7c0.2,0.5,0.8,0.7,1.2,0.7c1.2,0,1.8-1.3,1.8-1.6
		c0-0.1-0.1-0.1-0.2-0.1c-0.1,0-0.2,0.1-0.2,0.2C39.2,32.5,38.6,33,38,33c-0.4,0-0.6-0.3-0.6-0.7c0-0.3,0.2-1.2,0.5-2.4
		c0.2-0.8,0.7-1.1,1-1.1c0,0,0.3,0,0.6,0.1c-0.3,0.1-0.5,0.4-0.5,0.6c0,0.2,0.2,0.4,0.4,0.4c0.2,0,0.6-0.2,0.6-0.6
		c0-0.6-0.7-0.8-1.1-0.8c-0.5,0-0.9,0.3-1.2,0.7c-0.2-0.4-0.7-0.7-1.2-0.7c-1.2,0-1.8,1.3-1.8,1.6c0,0.1,0.1,0.1,0.2,0.1
		c0.1,0,0.1,0,0.2-0.2c0.3-0.8,0.9-1.2,1.4-1.2c0.3,0,0.6,0.2,0.6,0.7c0,0.2-0.1,0.7-0.2,1.1L36.5,32.1"/>
</g>
</svg>
