<?xml version="1.0" encoding="utf-8"?>
<!-- Generator: Adobe Illustrator 24.1.3, SVG Export Plug-In . SVG Version: 6.00 Build 0)  -->
<svg version="1.1" id="レイヤー_1" xmlns="http://www.w3.org/2000/svg" xmlns:xlink="http://www.w3.org/1999/xlink" x="0px"
	 y="0px" width="260.8px" height="106.6px" viewBox="0 0 260.8 106.6" style="enable-background:new 0 0 260.8 106.6;"
	 xml:space="preserve">
<style type="text/css">
	.st0{fill:#1D457F;}
</style>
<path class="st0" d="M24.6,11.2c-0.8-7.8-3-14.1-8.7-9.7C12.7,3.9,8.3,9.5,5.8,16C3.2,22.1,0,31.6,0,46.2s5.6,32.2,8,38.4
	c2.8,6.8,5,11.1,8,16.1c4.8,7.8,6.4,8.1,7.4,0.4C25,86.7,26,72,26,51.1C26,36.4,26,25.9,24.6,11.2z"/>
<path class="st0" d="M86.3,52.1c0-0.6,0-1.2-0.2-1.8s-0.4-1-0.6-1.6c-0.2-0.4-0.6-0.8-1-1s-0.8-0.4-1.2-0.4s-1,0-1.6,0.2
	s-1.2,0.4-1.6,0.6c-0.4,0.2-1,0.6-1.6,1c-0.4,0.4-0.8,0.8-1.2,1.2v21.3h-8.7V52.3c0-0.6,0-1.2-0.2-1.8s-0.4-1-0.8-1.6
	c-0.4-0.4-0.6-0.8-1-1s-0.8-0.4-1.2-0.4s-1,0-1.6,0.2s-1,0.4-1.6,0.6c-0.6,0.2-1,0.6-1.6,1c-0.4,0.4-1,0.8-1.4,1.2v21.1h-8.7V45.4
	l6.2-3.2h3v3.2c1.4-1,2.8-1.6,4.2-2.2c1.4-0.6,2.8-0.8,4.2-0.8c0.8,0,1.6,0,2.2,0.2c0.8,0.2,1.6,0.4,2.2,0.8c0.6,0.4,1.4,0.8,2,1.2
	s1.2,1,1.6,1.6c0.6-0.6,1.4-1,2.2-1.4c0.8-0.4,1.6-0.8,2.4-1.2s1.8-0.6,2.6-0.8c0.8-0.2,1.8-0.2,2.8-0.2c1.2,0,2.4,0.2,3.4,0.8
	c1.2,0.4,2,1.2,2.8,2s1.6,1.8,2,2.8c0.4,1.2,0.8,2.4,0.8,3.6v19.9h-8.7V52.1H86.3z"/>
<path class="st0" d="M115.3,72.2c-2.4,0-4.4-0.4-6.4-1.2c-2-0.8-3.6-1.8-5-3.2c-1.4-1.2-2.6-2.8-3.2-4.6c-1-1.8-1.4-3.6-1.4-5.8
	s0.4-4.2,1.2-6.2c0.8-1.8,2-3.4,3.2-4.8c1.4-1.4,3-2.4,5-3.2s4.2-1.2,6.4-1.2c2.4,0,4.4,0.4,6.4,1.2s3.6,1.8,5,3s2.6,2.8,3.4,4.6
	c0.8,1.8,1.2,3.8,1.2,5.8s-0.4,4.2-1.2,6s-2,3.6-3.2,5c-1.4,1.4-3.2,2.4-5,3.2C119.7,71.8,117.5,72.2,115.3,72.2z M116.3,68.6
	c0.8,0,1.6-0.2,2.2-0.8c0.6-0.4,1.2-1.2,1.8-2c0.4-0.8,0.8-1.8,1.2-3c0.2-1.2,0.4-2.4,0.4-3.6c0-1.8-0.2-3.6-0.4-5.2
	c-0.2-1.6-0.8-3-1.4-4.2s-1.4-2.2-2.4-2.8s-2.4-1.4-3.8-1.4c-0.8,0-1.4,0.2-2,0.8s-1.2,1.2-1.6,2s-0.8,1.8-1.2,3
	c-0.4,1.2-0.4,2.4-0.4,3.6c0,1.8,0.2,3.6,0.6,5.4c0.4,1.6,0.8,3.2,1.6,4.4c0.6,1.2,1.4,2.2,2.4,3C114.1,68.2,115.1,68.6,116.3,68.6z
	"/>
<path class="st0" d="M153.8,51.9c0-0.8,0-1.4-0.2-2s-0.4-1-0.6-1.4c-0.2-0.4-0.6-0.6-1-0.8s-0.8-0.4-1.2-0.4s-0.8,0-1.2,0.2
	s-1,0.4-1.6,0.6c-0.6,0.2-1.2,0.6-1.6,1c-0.6,0.4-1.2,0.8-1.6,1.4v21.1h-8.7V45.4l6.2-3.2h2.6v3c1.4-1,2.8-1.6,4.4-2.2
	c1.6-0.4,3-0.8,4.6-0.8c1.2,0,2.4,0.2,3.4,0.8c1,0.4,2,1.2,2.8,1.8c0.8,0.8,1.4,1.6,2,2.8c0.4,1,0.8,2.2,0.8,3.4v20.7H154
	L153.8,51.9L153.8,51.9z"/>
<path class="st0" d="M183.3,72.2c-2.4,0-4.4-0.4-6.4-1.2c-2-0.8-3.6-1.8-5-3.2c-1.4-1.2-2.6-2.8-3.2-4.6c-0.8-1.8-1.2-3.8-1.2-5.8
	c0-2.2,0.4-4.2,1.2-6.2c0.8-1.8,2-3.4,3.2-4.8c1.4-1.4,3-2.4,5-3.2s4.2-1.2,6.4-1.2c2.4,0,4.4,0.4,6.4,1.2s3.6,1.8,5,3
	s2.6,2.8,3.4,4.6c0.8,1.8,1.2,3.8,1.2,5.8s-0.4,4.2-1.2,6s-2,3.6-3.2,5c-1.4,1.4-3.2,2.4-5,3.2C187.6,71.8,185.4,72.2,183.3,72.2z
	 M184.3,68.6c0.8,0,1.6-0.2,2.2-0.8c0.6-0.4,1.2-1.2,1.8-2c0.4-0.8,0.8-1.8,1.2-3c0.2-1.2,0.4-2.4,0.4-3.6c0-1.8-0.2-3.6-0.4-5.2
	c-0.2-1.6-0.8-3-1.4-4.2c-0.6-1.2-1.4-2.2-2.4-2.8c-1-0.8-2.2-1-3.6-1c-0.8,0-1.4,0.2-2,0.8c-0.6,0.4-1.2,1.2-1.6,2
	c-0.4,0.8-0.8,1.8-1.2,3s-0.4,2.4-0.4,3.6c0,1.8,0.2,3.6,0.6,5.4c0.4,1.6,0.8,3.2,1.6,4.4c0.6,1.2,1.4,2.2,2.4,3
	C182.1,68.2,183.1,68.6,184.3,68.6z"/>
<path class="st0" d="M214.1,71.6h-8.7V31.4l6.2-3.2h2.6v43.4H214.1z"/>
<path class="st0" d="M222.6,32.8c0-0.6,0.2-1.2,0.4-1.6c0.2-0.6,0.6-1,1-1.4s1-0.6,1.6-0.8s1.2-0.4,1.8-0.4s1.2,0,1.8,0.4
	c0.6,0.2,1,0.6,1.6,0.8c0.4,0.4,0.8,0.8,1,1.4s0.4,1,0.4,1.6s-0.2,1.2-0.4,1.6c-0.2,0.4-0.6,1-1,1.4s-0.8,0.6-1.6,0.8
	c-0.6,0.2-1.2,0.4-1.8,0.4s-1.2,0-1.8-0.4c-0.6-0.2-1-0.6-1.6-0.8c-0.4-0.4-0.8-0.8-1-1.4C222.6,33.8,222.6,33.4,222.6,32.8z
	 M223,45.4l6.2-3.2h2.6v29.4H223V45.4L223,45.4z"/>
<path class="st0" d="M242.9,63.6c0.4,1.6,1.2,2.8,2.2,3.8c1,0.8,2.2,1.2,3.6,1.2c0.6,0,1.2,0,1.6-0.2c0.4-0.2,1-0.4,1.2-0.6
	c0.4-0.2,0.6-0.6,0.8-1s0.4-0.8,0.4-1.2c0-0.6-0.2-1.2-0.4-1.8c-0.2-0.6-0.6-1-1-1.4s-1-0.8-1.6-1.2s-1.2-0.8-2-1
	c-1.2-0.4-2.2-1-3.4-1.6s-2.2-1.2-3-2s-1.6-1.6-2.2-2.6s-0.8-2-0.8-3.4c0-1.2,0.2-2.4,0.8-3.4c0.4-1,1.2-1.8,2.2-2.6
	c0.8-0.8,2-1.2,3.2-1.6s2.8-0.6,4.2-0.6s2.6,0.2,3.8,0.4s2,0.6,2.8,1.2c0.8,0.4,1.6,1.2,2.2,1.8s1.2,1.6,1.6,2.4l-5,1.8
	c-0.2-0.8-0.6-1.6-1-2.2c-0.4-0.6-0.8-0.8-1.2-1.2c-0.4-0.2-0.8-0.4-1.2-0.4s-0.8,0-1,0c-0.6,0-1,0-1.6,0.2
	c-0.4,0.2-0.8,0.4-1.2,0.6c-0.4,0.2-0.6,0.4-0.8,0.8c-0.2,0.4-0.4,0.8-0.4,1.2c0,0.6,0.2,1,0.4,1.6c0.4,0.4,0.6,1,1.2,1.4
	c0.6,0.4,1.2,0.8,1.8,1.2c0.8,0.4,1.4,0.8,2.2,1c1.2,0.4,2.4,1,3.6,1.6c1.2,0.6,2.2,1.2,3,2c0.8,0.8,1.6,1.6,2.2,2.6s0.8,2,0.8,3.2
	c0,1.2-0.2,2.4-0.6,3.6s-1.2,2-2,2.8c-1,0.8-2.2,1.4-3.6,2c-1.4,0.4-3.2,0.8-5.4,0.8c-1.8,0-3.4-0.2-4.6-0.6c-1.2-0.4-2.4-1-3.2-1.6
	s-1.6-1.4-2.2-2.2c-0.6-0.8-1-1.6-1.6-2.4L242.9,63.6z"/>
</svg>
