<?xml version="1.0" encoding="utf-8"?>
<!-- Generator: Adobe Illustrator 24.1.2, SVG Export Plug-In . SVG Version: 6.00 Build 0)  -->
<svg version="1.1" id="レイヤー_1" xmlns="http://www.w3.org/2000/svg" xmlns:xlink="http://www.w3.org/1999/xlink" x="0px"
	 y="0px" width="131.2px" height="53.6px" viewBox="0 0 131.2 53.6" style="enable-background:new 0 0 131.2 53.6;"
	 xml:space="preserve">
<style type="text/css">
	.st0{fill:#314399;}
</style>
<path class="st0" d="M12.4,5.6C12,1.7,10.9-1.5,8,0.7C6.4,1.9,4.2,4.7,2.9,8C1.6,11.1,0,15.9,0,23.2s2.8,16.2,4,19.3
	c1.4,3.4,2.5,5.6,4,8.1c2.4,3.9,3.2,4.1,3.7,0.2c0.9-7.2,1.4-14.6,1.4-25.1C13.1,18.3,13.1,13,12.4,5.6z"/>
<path class="st0" d="M43.4,26.2c0-0.3,0-0.6-0.1-0.9c-0.1-0.3-0.2-0.5-0.3-0.8c-0.1-0.2-0.3-0.4-0.5-0.5c-0.2-0.1-0.4-0.2-0.6-0.2
	c-0.2,0-0.5,0-0.8,0.1c-0.3,0.1-0.6,0.2-0.8,0.3c-0.2,0.1-0.5,0.3-0.8,0.5c-0.2,0.2-0.4,0.4-0.6,0.6V36h-4.4v-9.7
	c0-0.3,0-0.6-0.1-0.9c-0.1-0.3-0.2-0.5-0.4-0.8c-0.2-0.2-0.3-0.4-0.5-0.5c-0.2-0.1-0.4-0.2-0.6-0.2c-0.2,0-0.5,0-0.8,0.1
	c-0.3,0.1-0.5,0.2-0.8,0.3c-0.3,0.1-0.5,0.3-0.8,0.5c-0.2,0.2-0.5,0.4-0.7,0.6V36h-4.4V22.8l3.1-1.6H30v1.6c0.7-0.5,1.4-0.8,2.1-1.1
	c0.7-0.3,1.4-0.4,2.1-0.4c0.4,0,0.8,0,1.1,0.1c0.4,0.1,0.8,0.2,1.1,0.4c0.3,0.2,0.7,0.4,1,0.6c0.3,0.2,0.6,0.5,0.8,0.8
	c0.3-0.3,0.7-0.5,1.1-0.7c0.4-0.2,0.8-0.4,1.2-0.6c0.4-0.2,0.9-0.3,1.3-0.4c0.4-0.1,0.9-0.1,1.4-0.1c0.6,0,1.2,0.1,1.7,0.4
	c0.6,0.2,1,0.6,1.4,1s0.8,0.9,1,1.4c0.2,0.6,0.4,1.2,0.4,1.8V36h-4.4v-9.8H43.4z"/>
<path class="st0" d="M58,36.3c-1.2,0-2.2-0.2-3.2-0.6c-1-0.4-1.8-0.9-2.5-1.6c-0.7-0.6-1.3-1.4-1.6-2.3C50.2,30.9,50,30,50,28.9
	c0-1.1,0.2-2.1,0.6-3.1c0.4-0.9,1-1.7,1.6-2.4c0.7-0.7,1.5-1.2,2.5-1.6c1-0.4,2.1-0.6,3.2-0.6c1.2,0,2.2,0.2,3.2,0.6
	c1,0.4,1.8,0.9,2.5,1.5c0.7,0.6,1.3,1.4,1.7,2.3s0.6,1.9,0.6,2.9c0,1-0.2,2.1-0.6,3c-0.4,0.9-1,1.8-1.6,2.5
	c-0.7,0.7-1.6,1.2-2.5,1.6C60.2,36.1,59.1,36.3,58,36.3z M58.5,34.5c0.4,0,0.8-0.1,1.1-0.4c0.3-0.2,0.6-0.6,0.9-1
	c0.2-0.4,0.4-0.9,0.6-1.5c0.1-0.6,0.2-1.2,0.2-1.8c0-0.9-0.1-1.8-0.2-2.6c-0.1-0.8-0.4-1.5-0.7-2.1s-0.7-1.1-1.2-1.4S58,23,57.3,23
	c-0.4,0-0.7,0.1-1,0.4s-0.6,0.6-0.8,1c-0.2,0.4-0.4,0.9-0.6,1.5c-0.2,0.6-0.2,1.2-0.2,1.8c0,0.9,0.1,1.8,0.3,2.7
	c0.2,0.8,0.4,1.6,0.8,2.2c0.3,0.6,0.7,1.1,1.2,1.5C57.4,34.3,57.9,34.5,58.5,34.5z"/>
<path class="st0" d="M77.4,26.1c0-0.4,0-0.7-0.1-1c-0.1-0.3-0.2-0.5-0.3-0.7c-0.1-0.2-0.3-0.3-0.5-0.4c-0.2-0.1-0.4-0.2-0.6-0.2
	c-0.2,0-0.4,0-0.6,0.1c-0.2,0.1-0.5,0.2-0.8,0.3c-0.3,0.1-0.6,0.3-0.8,0.5c-0.3,0.2-0.6,0.4-0.8,0.7V36h-4.4V22.8l3.1-1.6h1.3v1.5
	c0.7-0.5,1.4-0.8,2.2-1.1c0.8-0.2,1.5-0.4,2.3-0.4c0.6,0,1.2,0.1,1.7,0.4c0.5,0.2,1,0.6,1.4,0.9c0.4,0.4,0.7,0.8,1,1.4
	c0.2,0.5,0.4,1.1,0.4,1.7V36h-4.4L77.4,26.1L77.4,26.1z"/>
<path class="st0" d="M92.2,36.3c-1.2,0-2.2-0.2-3.2-0.6s-1.8-0.9-2.5-1.6c-0.7-0.6-1.3-1.4-1.6-2.3c-0.4-0.9-0.6-1.9-0.6-2.9
	c0-1.1,0.2-2.1,0.6-3.1c0.4-0.9,1-1.7,1.6-2.4c0.7-0.7,1.5-1.2,2.5-1.6c1-0.4,2.1-0.6,3.2-0.6c1.2,0,2.2,0.2,3.2,0.6
	c1,0.4,1.8,0.9,2.5,1.5c0.7,0.6,1.3,1.4,1.7,2.3c0.4,0.9,0.6,1.9,0.6,2.9c0,1-0.2,2.1-0.6,3c-0.4,0.9-1,1.8-1.6,2.5
	c-0.7,0.7-1.6,1.2-2.5,1.6C94.4,36.1,93.3,36.3,92.2,36.3z M92.7,34.5c0.4,0,0.8-0.1,1.1-0.4c0.3-0.2,0.6-0.6,0.9-1
	c0.2-0.4,0.4-0.9,0.6-1.5c0.1-0.6,0.2-1.2,0.2-1.8c0-0.9-0.1-1.8-0.2-2.6c-0.1-0.8-0.4-1.5-0.7-2.1c-0.3-0.6-0.7-1.1-1.2-1.4
	c-0.5-0.4-1.1-0.5-1.8-0.5c-0.4,0-0.7,0.1-1,0.4c-0.3,0.2-0.6,0.6-0.8,1c-0.2,0.4-0.4,0.9-0.6,1.5c-0.2,0.6-0.2,1.2-0.2,1.8
	c0,0.9,0.1,1.8,0.3,2.7c0.2,0.8,0.4,1.6,0.8,2.2c0.3,0.6,0.7,1.1,1.2,1.5C91.6,34.3,92.1,34.5,92.7,34.5z"/>
<path class="st0" d="M107.7,36h-4.4V15.8l3.1-1.6h1.3V36z"/>
<path class="st0" d="M112,16.5c0-0.3,0.1-0.6,0.2-0.8c0.1-0.3,0.3-0.5,0.5-0.7c0.2-0.2,0.5-0.3,0.8-0.4s0.6-0.2,0.9-0.2
	s0.6,0,0.9,0.2c0.3,0.1,0.5,0.3,0.8,0.4c0.2,0.2,0.4,0.4,0.5,0.7c0.1,0.3,0.2,0.5,0.2,0.8c0,0.3-0.1,0.6-0.2,0.8
	c-0.1,0.2-0.3,0.5-0.5,0.7c-0.2,0.2-0.4,0.3-0.8,0.4c-0.3,0.1-0.6,0.2-0.9,0.2s-0.6,0-0.9-0.2c-0.3-0.1-0.5-0.3-0.8-0.4
	c-0.2-0.2-0.4-0.4-0.5-0.7C112,17,112,16.8,112,16.5z M112.2,22.8l3.1-1.6h1.3V36h-4.4L112.2,22.8L112.2,22.8z"/>
<path class="st0" d="M122.2,32c0.2,0.8,0.6,1.4,1.1,1.9c0.5,0.4,1.1,0.6,1.8,0.6c0.3,0,0.6,0,0.8-0.1c0.2-0.1,0.5-0.2,0.6-0.3
	c0.2-0.1,0.3-0.3,0.4-0.5c0.1-0.2,0.2-0.4,0.2-0.6c0-0.3-0.1-0.6-0.2-0.9c-0.1-0.3-0.3-0.5-0.5-0.7c-0.2-0.2-0.5-0.4-0.8-0.6
	c-0.3-0.2-0.6-0.4-1-0.5c-0.6-0.2-1.1-0.5-1.7-0.8s-1.1-0.6-1.5-1c-0.4-0.4-0.8-0.8-1.1-1.3c-0.3-0.5-0.4-1-0.4-1.7
	c0-0.6,0.1-1.2,0.4-1.7c0.2-0.5,0.6-0.9,1.1-1.3c0.4-0.4,1-0.6,1.6-0.8s1.4-0.3,2.1-0.3c0.7,0,1.3,0.1,1.9,0.2
	c0.6,0.1,1,0.3,1.4,0.6c0.4,0.2,0.8,0.6,1.1,0.9c0.3,0.3,0.6,0.8,0.8,1.2l-2.5,0.9c-0.1-0.4-0.3-0.8-0.5-1.1
	c-0.2-0.3-0.4-0.4-0.6-0.6c-0.2-0.1-0.4-0.2-0.6-0.2c-0.2,0-0.4,0-0.5,0c-0.3,0-0.5,0-0.8,0.1c-0.2,0.1-0.4,0.2-0.6,0.3
	c-0.2,0.1-0.3,0.2-0.4,0.4c-0.1,0.2-0.2,0.4-0.2,0.6c0,0.3,0.1,0.5,0.2,0.8c0.2,0.2,0.3,0.5,0.6,0.7c0.3,0.2,0.6,0.4,0.9,0.6
	c0.4,0.2,0.7,0.4,1.1,0.5c0.6,0.2,1.2,0.5,1.8,0.8c0.6,0.3,1.1,0.6,1.5,1s0.8,0.8,1.1,1.3c0.3,0.5,0.4,1,0.4,1.6
	c0,0.6-0.1,1.2-0.3,1.8c-0.2,0.6-0.6,1-1,1.4c-0.5,0.4-1.1,0.7-1.8,1c-0.7,0.2-1.6,0.4-2.7,0.4c-0.9,0-1.7-0.1-2.3-0.3
	c-0.6-0.2-1.2-0.5-1.6-0.8c-0.4-0.3-0.8-0.7-1.1-1.1c-0.3-0.4-0.5-0.8-0.8-1.2L122.2,32z"/>
</svg>
